<?xml version="1.0" encoding="UTF-8" standalone="no"?><!-- Generator: Gravit.io --><svg xmlns="http://www.w3.org/2000/svg" xmlns:xlink="http://www.w3.org/1999/xlink" style="isolation:isolate" viewBox="0 0 512 512" width="512pt" height="512pt"><defs><clipPath id="_clipPath_CS3Rixci387Xfe4qysFYSqSf16nmYtzC"><rect x="0" y="0" width="512" height="512"/></clipPath></defs><g clip-path="url(#_clipPath_CS3Rixci387Xfe4qysFYSqSf16nmYtzC)"><g><path d=" M 256 512 C 187.62 512 123.333 485.372 74.98 437.02 C 26.627 388.668 0 324.38 0 256 C 0 187.62 26.628 123.333 74.98 74.98 C 123.332 26.627 187.62 0 256 0 C 324.38 0 388.667 26.628 437.02 74.98 C 485.373 123.332 512 187.62 512 256 C 512 324.38 485.372 388.667 437.02 437.02 C 388.668 485.373 324.38 512 256 512 L 256 512 Z  M 256 32 C 132.486 32 32 132.486 32 256 C 32 379.514 132.486 480 256 480 C 379.514 480 480 379.514 480 256 C 480 132.486 379.514 32 256 32 Z " fill="rgb(177,177,177)"/><path d=" M 251.19 368 C 240.566 368 231.952 360.836 231.952 352 C 231.952 311.614 250.862 273.646 285.2 245.088 C 306.689 227.215 318.524 203.453 318.524 178.177 C 318.524 150.509 291.459 128 258.192 128 L 253.808 128 C 220.541 128 193.476 150.509 193.476 178.177 L 193.476 184 C 193.476 192.836 184.862 200 174.238 200 C 163.614 200 155 192.836 155 184 L 155 178.177 C 155 132.864 199.325 96 253.808 96 L 258.192 96 C 312.675 96 357 132.864 357 178.177 C 357 212 341.163 243.799 312.406 267.716 C 285.336 290.229 270.429 320.162 270.429 352 C 270.429 360.836 261.815 368 251.19 368 L 251.19 368 Z " fill="rgb(177,177,177)"/><path d=" M 251.194 436.993 C 238.77 436.993 228.69 426.92 228.69 414.496 C 228.69 402.073 238.755 392 251.18 392 L 251.194 392 C 263.618 392 273.69 402.073 273.69 414.496 C 273.69 426.92 263.618 436.993 251.194 436.993 Z " fill="rgb(177,177,177)"/></g></g></svg>