<?xml version="1.0" encoding="UTF-8" standalone="no"?><!-- Generator: Gravit.io --><svg xmlns="http://www.w3.org/2000/svg" xmlns:xlink="http://www.w3.org/1999/xlink" style="isolation:isolate" viewBox="-20 -20 552 552" width="552pt" height="552pt"><defs><clipPath id="_clipPath_Lo3rCweOC7hYcB0KnYH3Us96kZqC6CAt"><rect x="-20" y="-20" width="552" height="552"/></clipPath></defs><g clip-path="url(#_clipPath_Lo3rCweOC7hYcB0KnYH3Us96kZqC6CAt)"><defs><filter id="dKPXZp0lwHvd2swJrnKS6EeQL5HxFgab" x="-200%" y="-200%" width="400%" height="400%" filterUnits="objectBoundingBox" color-interpolation-filters="sRGB"><feGaussianBlur xmlns="http://www.w3.org/2000/svg" in="SourceGraphic" stdDeviation="6.440413594258542"/><feOffset xmlns="http://www.w3.org/2000/svg" dx="0" dy="0" result="pf_100_offsetBlur"/><feFlood xmlns="http://www.w3.org/2000/svg" flood-color="#000000" flood-opacity="0.65"/><feComposite xmlns="http://www.w3.org/2000/svg" in2="pf_100_offsetBlur" operator="in" result="pf_100_dropShadow"/><feBlend xmlns="http://www.w3.org/2000/svg" in="SourceGraphic" in2="pf_100_dropShadow" mode="normal"/></filter></defs><g filter="url(#dKPXZp0lwHvd2swJrnKS6EeQL5HxFgab)"><clipPath id="_clipPath_5abdhu4U0CBlHb6mSEtaH2955UreHPyB"><rect x="0" y="0" width="512" height="512" transform="matrix(1,0,0,1,0,0)" fill="rgb(255,255,255)"/></clipPath><g clip-path="url(#_clipPath_5abdhu4U0CBlHb6mSEtaH2955UreHPyB)"><g><path d=" M 256 0 C 114.836 0 0 114.836 0 256 C 0 397.164 114.836 512 256 512 C 397.164 512 512 397.164 512 256 C 512 114.836 397.164 0 256 0 Z  M 368 277.332 L 277.332 277.332 L 277.332 368 C 277.332 379.777 267.777 389.332 256 389.332 C 244.223 389.332 234.668 379.777 234.668 368 L 234.668 277.332 L 144 277.332 C 132.223 277.332 122.668 267.777 122.668 256 C 122.668 244.223 132.223 234.668 144 234.668 L 234.668 234.668 L 234.668 144 C 234.668 132.223 244.223 122.668 256 122.668 C 267.777 122.668 277.332 132.223 277.332 144 L 277.332 234.668 L 368 234.668 C 379.777 234.668 389.332 244.223 389.332 256 C 389.332 267.777 379.777 277.332 368 277.332 L 368 277.332 L 368 277.332 Z " fill="rgb(0,0,0)"/></g></g></g></g></svg>