<?xml version="1.0" encoding="UTF-8" standalone="no"?><!-- Generator: Gravit.io --><svg xmlns="http://www.w3.org/2000/svg" xmlns:xlink="http://www.w3.org/1999/xlink" style="isolation:isolate" viewBox="64 95.996 384 320.004" width="384pt" height="320.004pt"><defs><clipPath id="_clipPath_Hhj8Cuw66nILBRu3yx2xfI4rOtp22zlX"><rect x="64" y="95.996" width="384" height="320.004"/></clipPath></defs><g clip-path="url(#_clipPath_Hhj8Cuw66nILBRu3yx2xfI4rOtp22zlX)"><path d=" M 432 240 L 112.808 240 L 235.032 123.584 C 241.432 117.488 241.68 107.36 235.584 100.96 C 229.496 94.568 219.368 94.312 212.96 100.408 L 73.376 233.368 C 67.336 239.416 64 247.448 64 256 C 64 264.544 67.336 272.584 73.656 278.896 L 212.968 411.584 C 216.064 414.536 220.032 416 224 416 C 228.224 416 232.448 414.336 235.592 411.032 C 241.688 404.632 241.44 394.512 235.04 388.416 L 112.304 272 L 432 272 C 440.832 272 448 264.832 448 256 C 448 247.168 440.832 240 432 240 Z " fill="rgb(185,185,185)"/></g></svg>