<?xml version="1.0" encoding="UTF-8" standalone="no"?><!-- Generator: Gravit.io --><svg xmlns="http://www.w3.org/2000/svg" xmlns:xlink="http://www.w3.org/1999/xlink" style="isolation:isolate" viewBox="0 0 512 512" width="512pt" height="512pt"><defs><clipPath id="_clipPath_4RIkB6WkYQaNSJufxFItrJNw1euVBNvW"><rect x="0" y="0" width="512" height="512"/></clipPath></defs><g clip-path="url(#_clipPath_4RIkB6WkYQaNSJufxFItrJNw1euVBNvW)"><path d=" M 257 0 C 116.39 0 0 114.39 0 255 C 0 395.61 116.39 512 257 512 C 397.61 512 512 395.61 512 255 C 512 114.39 397.61 0 257 0 Z  M 383.22 338.79 C 394.92 350.49 394.92 369.52 383.22 381.23 C 371.61 392.83 352.58 393.02 340.78 381.23 L 257 297.42 L 171.21 381.24 C 159.51 392.94 140.48 392.94 128.77 381.24 C 117.07 369.54 117.07 350.51 128.77 338.8 L 212.57 255 L 128.77 171.2 C 117.07 159.49 117.07 140.46 128.77 128.76 C 140.48 117.06 159.51 117.06 171.21 128.76 L 257 212.58 L 340.78 128.76 C 352.46 117.08 371.49 117.04 383.22 128.76 C 394.92 140.46 394.92 159.49 383.22 171.2 L 299.42 255 L 383.22 338.79 L 383.22 338.79 Z " fill="rgb(225,16,16)"/></g></svg>