<svg height="512" viewBox="0 0 64 64" width="512" xmlns="http://www.w3.org/2000/svg"><g id="Filled_outline" data-name="Filled outline"><rect fill="#aabece" height="30" rx="2" width="52" x="6" y="31"/><path d="m14 41h36v20h-36z" fill="#7d8d9c"/><rect fill="#f4f4e6" height="8" rx="4" width="28" x="18" y="45"/><circle cx="22" cy="49" fill="#394d5c" r="4"/><circle cx="42" cy="49" fill="#394d5c" r="4"/><path d="m9 56h2v2h-2z" fill="#f4f4e6"/><path d="m53 56h2v2h-2z" fill="#f4f4e6"/><path d="m46 37h-28l-4-6h36z" fill="#7d8d9c"/><path d="m29 48h2v2h-2z" fill="#f98c96"/><path d="m33 48h2v2h-2z" fill="#f98c96"/><path d="m18 56h28v2h-28z" fill="#394d5c"/><g fill="#f4f4e6"><path d="m11 38h-2v-4h4v2h-2z"/><path d="m55 38h-2v-2h-2v-2h4z"/><path d="m9 48h2v6h-2z"/><path d="m53 48h2v6h-2z"/></g><path d="m56 30h-18.462c-.627-1.027-2.067-3.882-.718-6.671 1.019-2.106 5.151-6.363 6.646-7.815a7.891 7.891 0 0 0 0-11.588c-3.234-3.049-8.179-2.197-11.466.419-3.291-2.615-8.236-3.467-11.466-.419a7.891 7.891 0 0 0 -.011 11.574c1.506 1.462 5.638 5.719 6.657 7.825 1.356 2.8-.844 5.754-1.626 6.671h-17.554a3 3 0 0 0 -3 3v26.004a3 3 0 0 0 3 3h48a3 3 0 0 0 3-3v-26a3 3 0 0 0 -3-3zm-34.095-15.941a5.894 5.894 0 0 1 0-8.678c2.575-2.428 6.888-1.361 9.409 1.013a1 1 0 0 0 1.372 0c2.522-2.377 6.835-3.439 9.409-1.013a5.893 5.893 0 0 1 -.011 8.687c-.231.225-5.684 5.536-7.064 8.39a8.646 8.646 0 0 0 .25 7.542h-7.223c1.132-1.742 2.358-4.6.933-7.542-1.38-2.858-6.833-8.165-7.075-8.399zm-1.905 17.941v2h2v-2h2v2h2v-2h12v2h2v-2h2v2h2v-2h4.132l-2.667 4h-26.93l-2.667-4zm29 28h-34v-18h34zm8-1a1 1 0 0 1 -1 1h-5v-19a1 1 0 0 0 -1-1h-36a1 1 0 0 0 -1 1v19h-5a1 1 0 0 1 -1-1v-26a1 1 0 0 1 1-1h5.465l3.7 5.555a1 1 0 0 0 .835.445h28a1 1 0 0 0 .832-.445l3.703-5.555h5.465a1 1 0 0 1 1 1z"/><path d="m22 54h20a5 5 0 0 0 0-10h-20a5 5 0 0 0 0 10zm19-7.816v1.816h2v-1.816a3 3 0 0 1 1.816 1.816h-1.816v2h1.816a3 3 0 0 1 -1.816 1.816v-1.816h-2v1.816a3 3 0 0 1 -1.816-1.816h1.816v-2h-1.816a3 3 0 0 1 1.816-1.816zm-15.026-.184h12.052a4.9 4.9 0 0 0 0 6h-12.052a4.9 4.9 0 0 0 0-6zm-4.974.184v1.816h2v-1.816a3 3 0 0 1 1.816 1.816h-1.816v2h1.816a3 3 0 0 1 -1.816 1.816v-1.816h-2v1.816a3 3 0 0 1 -1.816-1.816h1.816v-2h-1.816a3 3 0 0 1 1.816-1.816z"/><path d="m9 56h2v2h-2z"/><path d="m53 56h2v2h-2z"/><path d="m29 48h2v2h-2z"/><path d="m33 48h2v2h-2z"/><path d="m18 56h28v2h-28z"/><path d="m9 38h2v-2h2v-2h-4z"/><path d="m51 36h2v2h2v-4h-4z"/><path d="m9 48h2v6h-2z"/><path d="m53 48h2v6h-2z"/></g></svg>