<?xml version="1.0" encoding="UTF-8" standalone="no"?><!-- Generator: Gravit.io --><svg xmlns="http://www.w3.org/2000/svg" xmlns:xlink="http://www.w3.org/1999/xlink" style="isolation:isolate" viewBox="0 55.032 512.056 401.992" width="512.056pt" height="401.992pt"><defs><clipPath id="_clipPath_i70ybWo6uhuYAlTGjm9HtRitbA6fK4Nr"><rect x="0" y="55.032" width="512.056" height="401.992"/></clipPath></defs><g clip-path="url(#_clipPath_i70ybWo6uhuYAlTGjm9HtRitbA6fK4Nr)"><g><path d=" M 426.635 188.224 C 402.969 93.946 307.358 36.704 213.08 60.37 C 139.404 78.865 85.907 142.542 80.395 218.303 C 28.082 226.93 -7.333 276.331 1.294 328.644 C 8.963 375.151 49.261 409.21 96.395 409.023 L 176.395 409.023 L 176.395 377.023 L 96.395 377.023 C 61.049 377.023 32.395 348.369 32.395 313.023 C 32.395 277.677 61.049 249.023 96.395 249.023 C 105.232 249.023 112.395 241.86 112.395 233.023 C 112.315 153.494 176.722 88.958 256.251 88.879 C 325.095 88.81 384.358 137.48 397.675 205.023 C 398.99 211.767 404.463 216.919 411.275 217.823 C 455.017 224.052 485.426 264.561 479.198 308.302 C 473.605 347.58 440.069 376.825 400.395 377.023 L 336.395 377.023 L 336.395 409.023 L 400.395 409.023 C 462.251 408.836 512.243 358.54 512.055 296.684 C 511.899 245.194 476.655 200.443 426.635 188.224 Z " fill="rgb(251,9,130)"/><path d=" M 245.035 253.664 L 181.035 317.664 L 203.595 340.224 L 240.395 303.584 L 240.395 457.024 L 272.395 457.024 L 272.395 303.584 L 309.035 340.224 L 331.595 317.664 L 267.595 253.664 C 261.354 247.46 251.276 247.46 245.035 253.664 Z " fill="rgb(251,9,130)"/></g></g></svg>