<?xml version="1.0" encoding="UTF-8" standalone="no"?><!-- Generator: Gravit.io --><svg xmlns="http://www.w3.org/2000/svg" xmlns:xlink="http://www.w3.org/1999/xlink" style="isolation:isolate" viewBox="0.02 21.278 490.524 447.988" width="490.524pt" height="447.988pt"><defs><clipPath id="_clipPath_1qPBRx6b4B36ZsKtjiwNzEHRvsnJnhgJ"><rect x="0.02" y="21.278" width="490.524" height="447.988"/></clipPath></defs><g clip-path="url(#_clipPath_1qPBRx6b4B36ZsKtjiwNzEHRvsnJnhgJ)"><g><path d=" M 479.88 277.266 C 477.049 277.271 474.332 276.151 472.328 274.151 L 245.213 47.015 L 18.098 274.151 C 13.861 278.244 7.108 278.126 3.015 273.889 C -0.977 269.755 -0.977 263.202 3.015 259.069 L 237.682 24.401 C 241.847 20.237 248.599 20.237 252.765 24.401 L 487.432 259.068 C 491.591 263.24 491.58 269.994 487.408 274.153 C 485.409 276.146 482.702 277.265 479.88 277.266 Z " fill="rgb(195,195,195)"/><path d=" M 479.88 469.266 C 477.049 469.271 474.332 468.151 472.328 466.151 L 245.213 239.015 L 18.098 466.151 C 13.861 470.244 7.108 470.127 3.015 465.889 C -0.978 461.755 -0.978 455.202 3.015 451.068 L 237.682 216.401 C 241.847 212.237 248.599 212.237 252.765 216.401 L 487.432 451.068 C 491.591 455.24 491.58 461.994 487.408 466.153 C 485.409 468.146 482.702 469.265 479.88 469.266 Z " fill="rgb(195,195,195)"/></g></g></svg>