<?xml version="1.0" encoding="UTF-8" standalone="no"?><!-- Generator: Gravit.io --><svg xmlns="http://www.w3.org/2000/svg" xmlns:xlink="http://www.w3.org/1999/xlink" style="isolation:isolate" viewBox="0 3.583 30.333 23.167" width="30.333pt" height="23.167pt"><defs><clipPath id="_clipPath_ZevDpPYT9C9wA6WM6I3d4zZIDyDt4Jzb"><rect x="0" y="3.583" width="30.333" height="23.167"/></clipPath></defs><g clip-path="url(#_clipPath_ZevDpPYT9C9wA6WM6I3d4zZIDyDt4Jzb)"><g><path d=" M 0 26.75 L 0 11.908 C 0 7.318 3.735 3.583 8.325 3.583 L 22.006 3.583 C 26.597 3.583 30.333 7.318 30.333 11.908 L 30.333 14.468 C 30.333 19.058 26.598 22.793 22.008 22.793 L 8.518 22.793 L 0 26.75 L 0 26.75 Z  M 8.325 5.439 C 4.758 5.439 1.856 8.341 1.856 11.908 L 1.856 23.841 L 8.109 20.936 L 22.008 20.936 C 25.575 20.936 28.477 18.034 28.477 14.467 L 28.477 11.907 C 28.477 8.34 25.574 5.438 22.006 5.438 L 8.325 5.438 L 8.325 5.439 L 8.325 5.439 Z  M 8.937 11.767 C 9.912 11.767 10.702 12.557 10.702 13.532 C 10.702 14.507 9.912 15.297 8.937 15.297 C 7.962 15.297 7.172 14.507 7.172 13.532 C 7.172 12.557 7.962 11.767 8.937 11.767 Z  M 21.395 11.767 C 22.37 11.767 23.16 12.557 23.16 13.532 C 23.16 14.507 22.37 15.297 21.395 15.297 C 20.42 15.297 19.63 14.507 19.63 13.532 C 19.63 12.557 20.42 11.767 21.395 11.767 Z  M 15.165 11.767 C 16.14 11.767 16.93 12.557 16.93 13.532 C 16.93 14.507 16.14 15.297 15.165 15.297 C 14.19 15.297 13.4 14.507 13.4 13.532 C 13.4 12.557 14.19 11.767 15.165 11.767 Z " fill="rgb(209,209,209)"/></g></g></svg>