<?xml version="1.0" encoding="UTF-8" standalone="no"?><!-- Generator: Gravit.io --><svg xmlns="http://www.w3.org/2000/svg" xmlns:xlink="http://www.w3.org/1999/xlink" style="isolation:isolate" viewBox="0 0 512 512" width="512pt" height="512pt"><defs><clipPath id="_clipPath_HE3MzvtdfzbiUmeVdaGCqh2cLCHoCoAl"><rect x="0" y="0" width="512" height="512"/></clipPath></defs><g clip-path="url(#_clipPath_HE3MzvtdfzbiUmeVdaGCqh2cLCHoCoAl)"><g><path d=" M 320 160 L 32 160 C 14.327 160 0 174.327 0 192 L 0 480 C 0 497.673 14.327 512 32 512 L 320 512 C 337.673 512 352 497.673 352 480 L 352 192 C 352 174.327 337.673 160 320 160 Z  M 320 480 L 32 480 L 32 192 L 320 192 L 320 480 L 320 480 Z " fill="rgb(93,152,247)"/><path d=" M 480 0 L 192 0 C 174.327 0 160 14.327 160 32 L 160 112 L 192 112 L 192 32 L 480 32 L 480 320 L 400 320 L 400 352 L 480 352 C 497.673 352 512 337.673 512 320 L 512 32 C 512 14.327 497.673 0 480 0 Z " fill="rgb(93,152,247)"/></g></g></svg>