<?xml version="1.0" encoding="UTF-8" standalone="no"?><!-- Generator: Gravit.io --><svg xmlns="http://www.w3.org/2000/svg" xmlns:xlink="http://www.w3.org/1999/xlink" style="isolation:isolate" viewBox="39.997 -0.001 346.802 427" width="346.802pt" height="427pt"><defs><clipPath id="_clipPath_oyI3X60vWRVGdjCWtOkyRrHKvK8fLJQP"><rect x="39.997" y="-0.001" width="346.802" height="427"/></clipPath></defs><g clip-path="url(#_clipPath_oyI3X60vWRVGdjCWtOkyRrHKvK8fLJQP)"><g><path d=" M 272.398 154.703 C 266.875 154.703 262.398 159.179 262.398 164.703 L 262.398 353.702 C 262.398 359.222 266.875 363.702 272.398 363.702 C 277.922 363.702 282.398 359.222 282.398 353.702 L 282.398 164.703 C 282.398 159.179 277.922 154.703 272.398 154.703 Z " fill="rgb(217,29,29)"/><path d=" M 154.399 154.703 C 148.875 154.703 144.399 159.179 144.399 164.703 L 144.399 353.702 C 144.399 359.222 148.875 363.702 154.399 363.702 C 159.922 363.702 164.399 359.222 164.399 353.702 L 164.399 164.703 C 164.399 159.179 159.922 154.703 154.399 154.703 Z " fill="rgb(217,29,29)"/><path d=" M 68.399 127.121 L 68.399 373.499 C 68.399 388.061 73.739 401.737 83.067 411.55 C 92.352 421.389 105.274 426.975 118.797 426.999 L 308 426.999 C 321.527 426.975 334.449 421.389 343.73 411.55 C 353.058 401.737 358.398 388.061 358.398 373.499 L 358.398 127.121 C 376.941 122.199 388.957 104.285 386.476 85.258 C 383.992 66.234 367.785 52.004 348.597 52 L 297.398 52 L 297.398 39.5 C 297.457 28.988 293.301 18.894 285.859 11.469 C 278.418 4.047 268.309 -0.086 257.797 0 L 169 0 C 158.489 -0.086 148.379 4.047 140.938 11.469 C 133.496 18.894 129.34 28.988 129.399 39.5 L 129.399 52 L 78.2 52 C 59.012 52.004 42.805 66.234 40.321 85.258 C 37.841 104.285 49.856 122.199 68.399 127.121 L 68.399 127.121 Z  M 308 406.999 L 118.797 406.999 C 101.7 406.999 88.399 392.311 88.399 373.499 L 88.399 128 L 338.398 128 L 338.398 373.499 C 338.398 392.311 325.097 406.999 308 406.999 Z  M 149.399 39.5 C 149.332 34.293 151.379 29.281 155.075 25.605 C 158.766 21.93 163.789 19.91 169 20 L 257.797 20 C 263.008 19.91 268.031 21.93 271.723 25.605 C 275.418 29.277 277.465 34.293 277.398 39.5 L 277.398 52 L 149.399 52 L 149.399 39.5 Z  M 78.2 72 L 348.597 72 C 358.539 72 366.597 80.058 366.597 90 C 366.597 99.941 358.539 108 348.597 108 L 78.2 108 C 68.258 108 60.2 99.941 60.2 90 C 60.2 80.058 68.258 72 78.2 72 L 78.2 72 Z " fill="rgb(217,29,29)"/><path d=" M 213.399 154.703 C 207.875 154.703 203.399 159.179 203.399 164.703 L 203.399 353.702 C 203.399 359.222 207.875 363.702 213.399 363.702 C 218.922 363.702 223.399 359.222 223.399 353.702 L 223.399 164.703 C 223.399 159.179 218.922 154.703 213.399 154.703 Z " fill="rgb(217,29,29)"/></g></g></svg>