<?xml version="1.0" encoding="UTF-8" standalone="no"?><!-- Generator: Gravit.io --><svg xmlns="http://www.w3.org/2000/svg" xmlns:xlink="http://www.w3.org/1999/xlink" style="isolation:isolate" viewBox="59.667 0 392.667 512" width="392.667pt" height="512pt"><defs><clipPath id="_clipPath_CM3CevK7KDZOG7PJOOUQ94vhR3EF9mzs"><rect x="59.667" y="0" width="392.667" height="512"/></clipPath></defs><g clip-path="url(#_clipPath_CM3CevK7KDZOG7PJOOUQ94vhR3EF9mzs)"><g><path d=" M 362.058 0 L 59.667 0 L 59.667 512 L 452.334 512 L 452.334 89.762 L 362.058 0 Z  M 356.292 36.572 L 414.048 94 L 356.292 94 L 356.292 36.572 Z  M 422.333 482 L 89.667 482 L 89.667 30 L 326.292 30 L 326.292 124 L 422.334 124 L 422.334 482 L 422.333 482 Z " fill="rgb(14,143,230)"/><path d=" M 202.939 376 L 309.061 376 L 309.061 406 L 202.939 406 L 202.939 376 Z " fill="rgb(14,143,230)"/><path d=" M 145.704 297 L 366.295 297 L 366.295 327 L 145.704 327 L 145.704 297 Z " fill="rgb(14,143,230)"/><path d=" M 145.704 218 L 366.295 218 L 366.295 248 L 145.704 248 L 145.704 218 Z " fill="rgb(14,143,230)"/><path d=" M 145.704 139 L 256 139 L 256 169 L 145.704 169 L 145.704 139 Z " fill="rgb(14,143,230)"/></g></g></svg>