<?xml version="1.0" encoding="UTF-8" standalone="no"?><!-- Generator: Gravit.io --><svg xmlns="http://www.w3.org/2000/svg" xmlns:xlink="http://www.w3.org/1999/xlink" style="isolation:isolate" viewBox="347.667 93.333 362.667 426.667" width="362.667pt" height="426.667pt"><defs><clipPath id="_clipPath_qlMaLqzLFEmLSUXAM8iZw8GGF5xn6GGD"><rect x="347.667" y="93.333" width="362.667" height="426.667"/></clipPath></defs><g clip-path="url(#_clipPath_qlMaLqzLFEmLSUXAM8iZw8GGF5xn6GGD)"><g><path d=" M 657 520 L 401 520 C 371.603 520 347.667 496.085 347.667 466.667 L 347.667 146.667 C 347.667 117.248 371.603 93.333 401 93.333 L 657 93.333 C 686.397 93.333 710.333 117.248 710.333 146.667 L 710.333 466.667 C 710.333 496.085 686.397 520 657 520 Z  M 401 114.667 C 383.357 114.667 369 129.024 369 146.667 L 369 466.667 C 369 484.309 383.357 498.667 401 498.667 L 657 498.667 C 674.643 498.667 689 484.309 689 466.667 L 689 146.667 C 689 129.024 674.643 114.667 657 114.667 L 401 114.667 Z " fill="rgb(87,173,244)"/><path d=" M 614.333 360 L 443.667 360 C 437.779 360 433 355.221 433 349.333 C 433 343.445 437.779 338.667 443.667 338.667 L 614.333 338.667 C 620.221 338.667 625 343.445 625 349.333 C 625 355.221 620.221 360 614.333 360 Z " fill="rgb(87,173,244)"/><path d=" M 614.333 445.333 L 443.667 445.333 C 437.779 445.333 433 440.555 433 434.667 C 433 428.779 437.779 424 443.667 424 L 614.333 424 C 620.221 424 625 428.779 625 434.667 C 625 440.555 620.221 445.333 614.333 445.333 Z " fill="rgb(87,173,244)"/><path d=" M 614.333 274.667 L 443.667 274.667 C 437.779 274.667 433 269.888 433 264 C 433 258.112 437.779 253.333 443.667 253.333 L 614.333 253.333 C 620.221 253.333 625 258.112 625 264 C 625 269.888 620.221 274.667 614.333 274.667 Z " fill="rgb(87,173,244)"/><path d=" M 614.333 189.333 L 443.667 189.333 C 437.779 189.333 433 184.555 433 178.667 C 433 172.779 437.779 168 443.667 168 L 614.333 168 C 620.221 168 625 172.779 625 178.667 C 625 184.555 620.221 189.333 614.333 189.333 Z " fill="rgb(87,173,244)"/></g></g></svg>