<?xml version="1.0" encoding="UTF-8" standalone="no"?><!-- Generator: Gravit.io --><svg xmlns="http://www.w3.org/2000/svg" xmlns:xlink="http://www.w3.org/1999/xlink" style="isolation:isolate" viewBox="15 14.971 453.752 453.709" width="453.752pt" height="453.709pt"><defs><clipPath id="_clipPath_Vo3pabGKbLKaokRn0phO2R4dnpWt7L2x"><rect x="15" y="14.971" width="453.752" height="453.709"/></clipPath></defs><g clip-path="url(#_clipPath_Vo3pabGKbLKaokRn0phO2R4dnpWt7L2x)"><path d=" M 416.648 33.234 C 392.254 8.883 352.75 8.883 328.355 33.234 L 306.254 55.457 L 70.984 290.602 L 70.484 291.105 C 70.363 291.227 70.363 291.355 70.234 291.355 C 69.984 291.73 69.609 292.102 69.363 292.477 C 69.363 292.602 69.234 292.602 69.234 292.727 C 68.984 293.102 68.863 293.352 68.609 293.727 C 68.488 293.852 68.488 293.973 68.363 294.102 C 68.238 294.477 68.113 294.727 67.984 295.102 C 67.984 295.223 67.863 295.223 67.863 295.352 L 15.664 452.32 C 14.133 456.789 15.297 461.738 18.66 465.055 C 21.023 467.387 24.211 468.691 27.527 468.68 C 28.883 468.656 30.227 468.445 31.523 468.055 L 188.371 415.73 C 188.492 415.73 188.492 415.73 188.621 415.609 C 189.016 415.492 189.394 415.324 189.742 415.105 C 189.84 415.094 189.926 415.051 189.996 414.984 C 190.367 414.734 190.867 414.48 191.242 414.23 C 191.613 413.984 191.992 413.609 192.367 413.359 C 192.492 413.23 192.613 413.23 192.613 413.109 C 192.742 412.984 192.992 412.863 193.117 412.609 L 450.488 155.238 C 474.84 130.844 474.84 91.34 450.488 66.949 L 416.648 33.234 Z  M 184.375 386.383 L 97.461 299.473 L 314.996 81.938 L 401.91 168.848 L 184.375 386.383 Z  M 85.219 322.574 L 161.148 398.5 L 47.133 436.461 L 85.219 322.574 Z  M 432.883 137.754 L 419.644 151.117 L 332.726 64.199 L 346.094 50.84 C 360.715 36.231 384.414 36.231 399.039 50.84 L 433.004 84.805 C 447.515 99.492 447.461 123.137 432.883 137.754 Z " fill="rgb(240,240,240)"/></g></svg>