<?xml version="1.0" encoding="UTF-8" standalone="no"?><!-- Generator: Gravit.io --><svg xmlns="http://www.w3.org/2000/svg" xmlns:xlink="http://www.w3.org/1999/xlink" style="isolation:isolate" viewBox="0 76 512 360" width="512pt" height="360pt"><defs><clipPath id="_clipPath_lqrwwJx5NSxKQQEpvuZl7cUPUaAHrr4b"><rect x="0" y="76" width="512" height="360"/></clipPath></defs><g clip-path="url(#_clipPath_lqrwwJx5NSxKQQEpvuZl7cUPUaAHrr4b)"><g><path d=" M 467 76 L 45 76 C 20.187 76 0 96.187 0 121 L 0 391 C 0 415.813 20.187 436 45 436 L 467 436 C 491.813 436 512 415.813 512 391 L 512 121 C 512 96.187 491.813 76 467 76 Z  M 482 391 C 482 399.271 475.271 406 467 406 L 45 406 C 36.729 406 30 399.271 30 391 L 30 121 C 30 112.729 36.729 106 45 106 L 467 106 C 475.271 106 482 112.729 482 121 L 482 391 Z " fill="rgb(230,230,230)"/><path d=" M 437 286 L 75 286 C 66.716 286 60 292.716 60 301 C 60 309.284 66.716 316 75 316 L 437 316 C 445.284 316 452 309.284 452 301 C 452 292.716 445.284 286 437 286 Z " fill="rgb(230,230,230)"/><path d=" M 196 346 L 166 346 C 157.716 346 151 352.716 151 361 C 151 369.284 157.716 376 166 376 L 196 376 C 204.284 376 211 369.284 211 361 C 211 352.716 204.284 346 196 346 Z " fill="rgb(230,230,230)"/><path d=" M 286 346 L 256 346 C 247.716 346 241 352.716 241 361 C 241 369.284 247.716 376 256 376 L 286 376 C 294.284 376 301 369.284 301 361 C 301 352.716 294.284 346 286 346 Z " fill="rgb(230,230,230)"/><path d=" M 106 346 L 75 346 C 66.716 346 60 352.716 60 361 C 60 369.284 66.716 376 75 376 L 106 376 C 114.284 376 121 369.284 121 361 C 121 352.716 114.284 346 106 346 Z " fill="rgb(230,230,230)"/><path d=" M 75 256 L 166 256 C 174.284 256 181 249.284 181 241 L 181 181 C 181 177.022 179.419 173.207 176.606 170.394 L 146.606 140.394 C 143.793 137.581 139.978 136 136 136 L 75 136 C 66.716 136 60 142.716 60 151 L 60 241 C 60 249.284 66.716 256 75 256 Z  M 90 166 L 129.787 166 L 151 187.213 L 151 226 L 90 226 L 90 166 Z " fill="rgb(230,230,230)"/><path d=" M 391 256 C 357.916 256 331 229.084 331 196 C 331 162.916 357.916 136 391 136 C 407.003 136 422.19 142.185 433.765 153.415 C 445.524 164.823 452 179.947 452 196 C 452 212.053 445.524 227.177 433.765 238.585 C 422.19 249.815 407.003 256 391 256 Z  M 391 166 C 374.458 166 361 179.458 361 196 C 361 212.542 374.458 226 391 226 C 407.804 226 422 212.262 422 196 C 422 179.738 407.804 166 391 166 Z " fill="rgb(230,230,230)"/></g></g></svg>