<?xml version="1.0" encoding="UTF-8" standalone="no"?><!-- Generator: Gravit.io --><svg xmlns="http://www.w3.org/2000/svg" xmlns:xlink="http://www.w3.org/1999/xlink" style="isolation:isolate" viewBox="0 0 512 512" width="512pt" height="512pt"><defs><clipPath id="_clipPath_4rNl3Cu9l2iqZJ3wFCI11iERAvWy7ofe"><rect x="0" y="0" width="512" height="512"/></clipPath></defs><g clip-path="url(#_clipPath_4rNl3Cu9l2iqZJ3wFCI11iERAvWy7ofe)"><path d=" M 256 0 C 115.301 0 0 116.301 0 257 C 0 396.883 114.25 512 256 512 C 397.574 512 512 397.055 512 257 C 512 116.301 396.699 0 256 0 Z  M 301 477.5 C 286.602 480.5 271.301 482 256 482 C 240.699 482 225.398 480.5 211 477.5 L 211 407.301 C 211 390.5 215.5 384.5 221.5 376.398 C 224.555 372.906 226.398 369.773 240.098 349.102 L 217 345.5 C 157.598 336.801 134.199 305.898 124.898 281.898 C 112.898 249.801 119.199 209.598 140.801 184.102 C 144.102 180.199 146.801 173.598 144.402 166.699 C 139.898 152.898 140.5 131 143.5 122.598 C 159.406 124.871 175.762 136.266 189.402 144.5 C 195.688 148.168 198.984 147.199 202 147.5 C 212.961 145.219 230.059 139.699 256.301 139.699 C 272.5 139.699 289.602 142.098 306.402 146.898 C 309.406 146.828 314.234 149.383 322.602 144.5 C 336.859 135.813 352.66 124.809 368.5 122.598 C 371.5 131 372.102 152.898 367.602 166.699 C 365.199 173.598 367.898 180.199 371.203 184.102 C 392.801 209.602 399.102 249.801 387.102 281.898 C 377.801 305.898 354.402 336.801 295 345.5 L 271.902 349.102 C 286.063 370.469 287.555 373.031 290.504 376.398 C 296.5 384.5 301 390.5 301 407.301 L 301 477.5 Z  M 331 468.801 L 331 407.301 C 331 390.199 327.398 378.801 322.598 370.398 C 368.199 358.102 400.602 331.098 415 292.398 C 430.301 251.602 423.402 203 397.898 169.398 C 402.402 149.301 402.402 117.199 391.602 102.199 C 386.801 95.602 380.199 92 371.801 92 C 371.5 92 371.5 92 371.5 92 C 348.238 93.258 329.93 104.973 310.301 116.898 C 292.301 112.098 274 109.699 255.699 109.699 C 237.102 109.699 218.5 112.398 202.004 116.898 C 181.34 104.438 163.207 93.227 139.301 92 C 131.801 92 125.199 95.602 120.398 102.199 C 109.602 117.199 109.602 149.301 114.102 169.398 C 88.598 203 81.699 251.898 97 292.398 C 111.398 331.098 143.801 358.102 189.402 370.398 C 185.68 376.91 182.734 385.313 181.574 396.684 C 172.363 399.859 164.375 400.895 156.945 398.711 C 149.109 396.395 143.004 391.164 137.699 382.242 C 125.785 362.227 105.492 345.887 82.387 348.012 L 85.023 377.895 C 95.723 376.914 106.371 388.234 111.902 397.566 C 121.027 412.934 133.32 423.012 148.449 427.48 C 159.68 430.789 169.945 430.711 181 428.352 L 181 468.801 C 93.699 438.199 30 354.801 30 257 C 30 132.801 131.801 30 256 30 C 380.199 30 482 132.801 482 257 C 482 354.801 418.301 438.199 331 468.801 Z " fill="rgb(177,177,177)"/></g></svg>