<?xml version="1.0" encoding="UTF-8" standalone="no"?><!-- Generator: Gravit.io --><svg xmlns="http://www.w3.org/2000/svg" xmlns:xlink="http://www.w3.org/1999/xlink" style="isolation:isolate" viewBox="38 0 336 412" width="336pt" height="412pt"><defs><clipPath id="_clipPath_rg3Lwc7NTrjUm0ReEvJfEonjfdH0PASD"><rect x="38" y="0" width="336" height="412"/></clipPath></defs><g clip-path="url(#_clipPath_rg3Lwc7NTrjUm0ReEvJfEonjfdH0PASD)"><g><path d=" M 334 140 L 270 140 C 265.6 140 262 143.6 262 148 C 262 152.4 265.6 156 270 156 L 334 156 C 347.2 156 358 166.8 358 180 L 358 372 C 358 385.2 347.2 396 334 396 L 78 396 C 64.8 396 54 385.2 54 372 L 54 180 C 54 166.8 64.8 156 78 156 L 150 156 C 154.4 156 158 152.4 158 148 C 158 143.6 154.4 140 150 140 L 78 140 C 56 140 38 158 38 180 L 38 372 C 38 394 56 412 78 412 L 334 412 C 356 412 374 394 374 372 L 374 180 C 374 158 356 140 334 140 Z " fill="rgb(185,185,185)"/><path d=" M 206 28 C 210.4 28 214 24.4 214 20 L 214 8 C 214 3.6 210.4 0 206 0 C 201.6 0 198 3.6 198 8 L 198 20 C 198 24.4 201.6 28 206 28 Z " fill="rgb(185,185,185)"/><path d=" M 129.6 211.6 C 126.4 214.8 126.4 219.6 129.6 222.8 L 200.4 293.6 C 202 295.2 204 296 206 296 C 208 296 210 295.2 211.6 293.6 L 282.4 222.8 C 285.6 219.6 285.6 214.8 282.4 211.6 C 279.2 208.4 274.4 208.4 271.2 211.6 L 214 268.8 L 214 56 C 214 51.6 210.4 48 206 48 C 201.6 48 198 51.6 198 56 L 198 268.8 L 140.8 211.6 C 137.6 208.4 132.8 208.4 129.6 211.6 Z " fill="rgb(185,185,185)"/></g></g></svg>