<?xml version="1.0" encoding="UTF-8" standalone="no"?><!-- Generator: Gravit.io --><svg xmlns="http://www.w3.org/2000/svg" xmlns:xlink="http://www.w3.org/1999/xlink" style="isolation:isolate" viewBox="0 0 496 336" width="496pt" height="336pt"><defs><clipPath id="_clipPath_Pqv4HGUkfT3sqbHBeaskRIKjIzboladx"><rect x="0" y="0" width="496" height="336"/></clipPath></defs><g clip-path="url(#_clipPath_Pqv4HGUkfT3sqbHBeaskRIKjIzboladx)"><g><path d=" M 456 0 L 40 0 C 17.919 0.025 0.025 17.919 0 40 L 0 296 C 0.025 318.081 17.919 335.975 40 336 L 456 336 C 478.081 335.975 495.975 318.081 496 296 L 496 40 C 495.975 17.919 478.081 0.025 456 0 L 456 0 Z  M 16 40 C 16.015 26.751 26.751 16.015 40 16 L 456 16 C 469.249 16.015 479.985 26.751 480 40 L 480 64 L 16 64 L 16 40 Z  M 164.944 320 L 188.944 272 L 306.124 272 L 330.874 320 L 164.944 320 Z  M 480 296 C 479.985 309.249 469.249 319.985 456 320 L 348.876 320 L 318.11 260.333 C 316.738 257.672 313.994 256 311 256 L 184 256 C 180.97 256 178.2 257.712 176.845 260.422 L 147.056 320 L 40 320 C 26.751 319.985 16.015 309.249 16 296 L 16 80 L 480 80 L 480 296 Z " fill="rgb(255,255,255)"/><clipPath id="_clipPath_PYrUpeKegGrwVyPoUMI5cFDG4yoXGmuS"><path d=" M 456 0 L 40 0 C 17.919 0.025 0.025 17.919 0 40 L 0 296 C 0.025 318.081 17.919 335.975 40 336 L 456 336 C 478.081 335.975 495.975 318.081 496 296 L 496 40 C 495.975 17.919 478.081 0.025 456 0 L 456 0 Z  M 16 40 C 16.015 26.751 26.751 16.015 40 16 L 456 16 C 469.249 16.015 479.985 26.751 480 40 L 480 64 L 16 64 L 16 40 Z  M 164.944 320 L 188.944 272 L 306.124 272 L 330.874 320 L 164.944 320 Z  M 480 296 C 479.985 309.249 469.249 319.985 456 320 L 348.876 320 L 318.11 260.333 C 316.738 257.672 313.994 256 311 256 L 184 256 C 180.97 256 178.2 257.712 176.845 260.422 L 147.056 320 L 40 320 C 26.751 319.985 16.015 309.249 16 296 L 16 80 L 480 80 L 480 296 Z " fill="rgb(255,255,255)"/></clipPath><g clip-path="url(#_clipPath_PYrUpeKegGrwVyPoUMI5cFDG4yoXGmuS)"><g><path d=" M 456 0 L 40 0 C 17.919 0.025 0.025 17.919 0 40 L 0 296 C 0.025 318.081 17.919 335.975 40 336 L 456 336 C 478.081 335.975 495.975 318.081 496 296 L 496 40 C 495.975 17.919 478.081 0.025 456 0 L 456 0 Z  M 16 40 C 16.015 26.751 26.751 16.015 40 16 L 456 16 C 469.249 16.015 479.985 26.751 480 40 L 480 64 L 16 64 L 16 40 Z  M 164.944 320 L 188.944 272 L 306.124 272 L 330.874 320 L 164.944 320 Z  M 480 296 C 479.985 309.249 469.249 319.985 456 320 L 348.876 320 L 318.11 260.333 C 316.738 257.672 313.994 256 311 256 L 184 256 C 180.97 256 178.2 257.712 176.845 260.422 L 147.056 320 L 40 320 C 26.751 319.985 16.015 309.249 16 296 L 16 80 L 480 80 L 480 296 Z " fill="rgb(255,255,255)"/><clipPath id="_clipPath_16ULqe81CIpQF9SRX5tiCfyO2aheE9Tj"><path d=" M 456 0 L 40 0 C 17.919 0.025 0.025 17.919 0 40 L 0 296 C 0.025 318.081 17.919 335.975 40 336 L 456 336 C 478.081 335.975 495.975 318.081 496 296 L 496 40 C 495.975 17.919 478.081 0.025 456 0 L 456 0 Z  M 16 40 C 16.015 26.751 26.751 16.015 40 16 L 456 16 C 469.249 16.015 479.985 26.751 480 40 L 480 64 L 16 64 L 16 40 Z  M 164.944 320 L 188.944 272 L 306.124 272 L 330.874 320 L 164.944 320 Z  M 480 296 C 479.985 309.249 469.249 319.985 456 320 L 348.876 320 L 318.11 260.333 C 316.738 257.672 313.994 256 311 256 L 184 256 C 180.97 256 178.2 257.712 176.845 260.422 L 147.056 320 L 40 320 C 26.751 319.985 16.015 309.249 16 296 L 16 80 L 480 80 L 480 296 Z " fill="rgb(255,255,255)"/></clipPath><g clip-path="url(#_clipPath_16ULqe81CIpQF9SRX5tiCfyO2aheE9Tj)"><mask id="_mask_5uX9MPxbOwUTsTA71cWqxtXrIMzp3T0b"><path d=" M 456 0 L 40 0 C 17.919 0.025 0.025 17.919 0 40 L 0 296 C 0.025 318.081 17.919 335.975 40 336 L 456 336 C 478.081 335.975 495.975 318.081 496 296 L 496 40 C 495.975 17.919 478.081 0.025 456 0 L 456 0 Z  M 16 40 C 16.015 26.751 26.751 16.015 40 16 L 456 16 C 469.249 16.015 479.985 26.751 480 40 L 480 64 L 16 64 L 16 40 Z  M 164.944 320 L 188.944 272 L 306.124 272 L 330.874 320 L 164.944 320 Z  M 480 296 C 479.985 309.249 469.249 319.985 456 320 L 348.876 320 L 318.11 260.333 C 316.738 257.672 313.994 256 311 256 L 184 256 C 180.97 256 178.2 257.712 176.845 260.422 L 147.056 320 L 40 320 C 26.751 319.985 16.015 309.249 16 296 L 16 80 L 480 80 L 480 296 Z " fill="white" stroke="none"/></mask><path d=" M 456 0 L 40 0 C 17.919 0.025 0.025 17.919 0 40 L 0 296 C 0.025 318.081 17.919 335.975 40 336 L 456 336 C 478.081 335.975 495.975 318.081 496 296 L 496 40 C 495.975 17.919 478.081 0.025 456 0 L 456 0 Z  M 16 40 C 16.015 26.751 26.751 16.015 40 16 L 456 16 C 469.249 16.015 479.985 26.751 480 40 L 480 64 L 16 64 L 16 40 Z  M 164.944 320 L 188.944 272 L 306.124 272 L 330.874 320 L 164.944 320 Z  M 480 296 C 479.985 309.249 469.249 319.985 456 320 L 348.876 320 L 318.11 260.333 C 316.738 257.672 313.994 256 311 256 L 184 256 C 180.97 256 178.2 257.712 176.845 260.422 L 147.056 320 L 40 320 C 26.751 319.985 16.015 309.249 16 296 L 16 80 L 480 80 L 480 296 Z " fill="rgb(255,255,255)"/><path d=" M 456 0 L 40 0 C 17.919 0.025 0.025 17.919 0 40 L 0 296 C 0.025 318.081 17.919 335.975 40 336 L 456 336 C 478.081 335.975 495.975 318.081 496 296 L 496 40 C 495.975 17.919 478.081 0.025 456 0 L 456 0 Z  M 16 40 C 16.015 26.751 26.751 16.015 40 16 L 456 16 C 469.249 16.015 479.985 26.751 480 40 L 480 64 L 16 64 L 16 40 Z  M 164.944 320 L 188.944 272 L 306.124 272 L 330.874 320 L 164.944 320 Z  M 480 296 C 479.985 309.249 469.249 319.985 456 320 L 348.876 320 L 318.11 260.333 C 316.738 257.672 313.994 256 311 256 L 184 256 C 180.97 256 178.2 257.712 176.845 260.422 L 147.056 320 L 40 320 C 26.751 319.985 16.015 309.249 16 296 L 16 80 L 480 80 L 480 296 Z " fill="rgb(255,255,255)" mask="url(#_mask_5uX9MPxbOwUTsTA71cWqxtXrIMzp3T0b)" vector-effect="non-scaling-stroke" stroke-width="2" stroke="rgb(255,255,255)" stroke-opacity="10000" stroke-linejoin="miter" stroke-linecap="square" stroke-miterlimit="3"/></g></g></g><path d=" M 136 224 L 360 224 C 390.928 224 416 198.928 416 168 C 416 137.072 390.928 112 360 112 L 136 112 C 105.072 112 80 137.072 80 168 C 80 198.928 105.072 224 136 224 Z  M 400 168 C 400 190.091 382.091 208 360 208 C 337.909 208 320 190.091 320 168 C 320 145.909 337.909 128 360 128 C 382.081 128.025 399.975 145.919 400 168 L 400 168 Z  M 320.862 128 C 310.08 138.516 304 152.939 304 168 C 304 183.061 310.08 197.484 320.862 208 L 175.138 208 C 185.92 197.484 192 183.061 192 168 C 192 152.939 185.92 138.516 175.138 128 L 320.862 128 Z  M 136 128 C 158.091 128 176 145.909 176 168 C 176 190.091 158.091 208 136 208 C 113.909 208 96 190.091 96 168 C 96.025 145.919 113.919 128.025 136 128 L 136 128 Z " fill="rgb(255,255,255)"/><clipPath id="_clipPath_giDJEUNog9F2RfrKBHubE4Bsw7Ib2yCs"><path d=" M 136 224 L 360 224 C 390.928 224 416 198.928 416 168 C 416 137.072 390.928 112 360 112 L 136 112 C 105.072 112 80 137.072 80 168 C 80 198.928 105.072 224 136 224 Z  M 400 168 C 400 190.091 382.091 208 360 208 C 337.909 208 320 190.091 320 168 C 320 145.909 337.909 128 360 128 C 382.081 128.025 399.975 145.919 400 168 L 400 168 Z  M 320.862 128 C 310.08 138.516 304 152.939 304 168 C 304 183.061 310.08 197.484 320.862 208 L 175.138 208 C 185.92 197.484 192 183.061 192 168 C 192 152.939 185.92 138.516 175.138 128 L 320.862 128 Z  M 136 128 C 158.091 128 176 145.909 176 168 C 176 190.091 158.091 208 136 208 C 113.909 208 96 190.091 96 168 C 96.025 145.919 113.919 128.025 136 128 L 136 128 Z " fill="rgb(255,255,255)"/></clipPath><g clip-path="url(#_clipPath_giDJEUNog9F2RfrKBHubE4Bsw7Ib2yCs)"><g><path d=" M 136 224 L 360 224 C 390.928 224 416 198.928 416 168 C 416 137.072 390.928 112 360 112 L 136 112 C 105.072 112 80 137.072 80 168 C 80 198.928 105.072 224 136 224 Z  M 400 168 C 400 190.091 382.091 208 360 208 C 337.909 208 320 190.091 320 168 C 320 145.909 337.909 128 360 128 C 382.081 128.025 399.975 145.919 400 168 L 400 168 Z  M 320.862 128 C 310.08 138.516 304 152.939 304 168 C 304 183.061 310.08 197.484 320.862 208 L 175.138 208 C 185.92 197.484 192 183.061 192 168 C 192 152.939 185.92 138.516 175.138 128 L 320.862 128 Z  M 136 128 C 158.091 128 176 145.909 176 168 C 176 190.091 158.091 208 136 208 C 113.909 208 96 190.091 96 168 C 96.025 145.919 113.919 128.025 136 128 L 136 128 Z " fill="rgb(255,255,255)"/><clipPath id="_clipPath_IDHJ3uTlDyzpl8GgcD2T1kUpz1uvnqRi"><path d=" M 136 224 L 360 224 C 390.928 224 416 198.928 416 168 C 416 137.072 390.928 112 360 112 L 136 112 C 105.072 112 80 137.072 80 168 C 80 198.928 105.072 224 136 224 Z  M 400 168 C 400 190.091 382.091 208 360 208 C 337.909 208 320 190.091 320 168 C 320 145.909 337.909 128 360 128 C 382.081 128.025 399.975 145.919 400 168 L 400 168 Z  M 320.862 128 C 310.08 138.516 304 152.939 304 168 C 304 183.061 310.08 197.484 320.862 208 L 175.138 208 C 185.92 197.484 192 183.061 192 168 C 192 152.939 185.92 138.516 175.138 128 L 320.862 128 Z  M 136 128 C 158.091 128 176 145.909 176 168 C 176 190.091 158.091 208 136 208 C 113.909 208 96 190.091 96 168 C 96.025 145.919 113.919 128.025 136 128 L 136 128 Z " fill="rgb(255,255,255)"/></clipPath><g clip-path="url(#_clipPath_IDHJ3uTlDyzpl8GgcD2T1kUpz1uvnqRi)"><mask id="_mask_TBOrE7hboc2lTcX5Q3NeagVcNPOnuX7m"><path d=" M 136 224 L 360 224 C 390.928 224 416 198.928 416 168 C 416 137.072 390.928 112 360 112 L 136 112 C 105.072 112 80 137.072 80 168 C 80 198.928 105.072 224 136 224 Z  M 400 168 C 400 190.091 382.091 208 360 208 C 337.909 208 320 190.091 320 168 C 320 145.909 337.909 128 360 128 C 382.081 128.025 399.975 145.919 400 168 L 400 168 Z  M 320.862 128 C 310.08 138.516 304 152.939 304 168 C 304 183.061 310.08 197.484 320.862 208 L 175.138 208 C 185.92 197.484 192 183.061 192 168 C 192 152.939 185.92 138.516 175.138 128 L 320.862 128 Z  M 136 128 C 158.091 128 176 145.909 176 168 C 176 190.091 158.091 208 136 208 C 113.909 208 96 190.091 96 168 C 96.025 145.919 113.919 128.025 136 128 L 136 128 Z " fill="white" stroke="none"/></mask><path d=" M 136 224 L 360 224 C 390.928 224 416 198.928 416 168 C 416 137.072 390.928 112 360 112 L 136 112 C 105.072 112 80 137.072 80 168 C 80 198.928 105.072 224 136 224 Z  M 400 168 C 400 190.091 382.091 208 360 208 C 337.909 208 320 190.091 320 168 C 320 145.909 337.909 128 360 128 C 382.081 128.025 399.975 145.919 400 168 L 400 168 Z  M 320.862 128 C 310.08 138.516 304 152.939 304 168 C 304 183.061 310.08 197.484 320.862 208 L 175.138 208 C 185.92 197.484 192 183.061 192 168 C 192 152.939 185.92 138.516 175.138 128 L 320.862 128 Z  M 136 128 C 158.091 128 176 145.909 176 168 C 176 190.091 158.091 208 136 208 C 113.909 208 96 190.091 96 168 C 96.025 145.919 113.919 128.025 136 128 L 136 128 Z " fill="rgb(255,255,255)"/><path d=" M 136 224 L 360 224 C 390.928 224 416 198.928 416 168 C 416 137.072 390.928 112 360 112 L 136 112 C 105.072 112 80 137.072 80 168 C 80 198.928 105.072 224 136 224 Z  M 400 168 C 400 190.091 382.091 208 360 208 C 337.909 208 320 190.091 320 168 C 320 145.909 337.909 128 360 128 C 382.081 128.025 399.975 145.919 400 168 L 400 168 Z  M 320.862 128 C 310.08 138.516 304 152.939 304 168 C 304 183.061 310.08 197.484 320.862 208 L 175.138 208 C 185.92 197.484 192 183.061 192 168 C 192 152.939 185.92 138.516 175.138 128 L 320.862 128 Z  M 136 128 C 158.091 128 176 145.909 176 168 C 176 190.091 158.091 208 136 208 C 113.909 208 96 190.091 96 168 C 96.025 145.919 113.919 128.025 136 128 L 136 128 Z " fill="rgb(255,255,255)" mask="url(#_mask_TBOrE7hboc2lTcX5Q3NeagVcNPOnuX7m)" vector-effect="non-scaling-stroke" stroke-width="2" stroke="rgb(255,255,255)" stroke-opacity="10000" stroke-linejoin="miter" stroke-linecap="square" stroke-miterlimit="3"/></g></g></g><path d=" M 104 40 L 40 40 C 35.582 40 32 43.582 32 48 C 32 52.418 35.582 56 40 56 L 104 56 C 108.418 56 112 52.418 112 48 C 112 43.582 108.418 40 104 40 Z " fill="rgb(255,255,255)"/><clipPath id="_clipPath_I3NYIKCRHDbwgAneS3cbnfRpw2baMPtu"><path d=" M 104 40 L 40 40 C 35.582 40 32 43.582 32 48 C 32 52.418 35.582 56 40 56 L 104 56 C 108.418 56 112 52.418 112 48 C 112 43.582 108.418 40 104 40 Z " fill="rgb(255,255,255)"/></clipPath><g clip-path="url(#_clipPath_I3NYIKCRHDbwgAneS3cbnfRpw2baMPtu)"><g><path d=" M 104 40 L 40 40 C 35.582 40 32 43.582 32 48 C 32 52.418 35.582 56 40 56 L 104 56 C 108.418 56 112 52.418 112 48 C 112 43.582 108.418 40 104 40 Z " fill="rgb(255,255,255)"/><clipPath id="_clipPath_ORG41gFmPvyGBFR9gRr1q1Nm99pXNB4m"><path d=" M 104 40 L 40 40 C 35.582 40 32 43.582 32 48 C 32 52.418 35.582 56 40 56 L 104 56 C 108.418 56 112 52.418 112 48 C 112 43.582 108.418 40 104 40 Z " fill="rgb(255,255,255)"/></clipPath><g clip-path="url(#_clipPath_ORG41gFmPvyGBFR9gRr1q1Nm99pXNB4m)"><mask id="_mask_se6oxo2ghNfr6oukYUUztS3MFKSej6UH"><path d=" M 104 40 L 40 40 C 35.582 40 32 43.582 32 48 C 32 52.418 35.582 56 40 56 L 104 56 C 108.418 56 112 52.418 112 48 C 112 43.582 108.418 40 104 40 Z " fill="white" stroke="none"/></mask><path d=" M 104 40 L 40 40 C 35.582 40 32 43.582 32 48 C 32 52.418 35.582 56 40 56 L 104 56 C 108.418 56 112 52.418 112 48 C 112 43.582 108.418 40 104 40 Z " fill="rgb(255,255,255)"/><path d=" M 104 40 L 40 40 C 35.582 40 32 43.582 32 48 C 32 52.418 35.582 56 40 56 L 104 56 C 108.418 56 112 52.418 112 48 C 112 43.582 108.418 40 104 40 Z " fill="rgb(255,255,255)" mask="url(#_mask_se6oxo2ghNfr6oukYUUztS3MFKSej6UH)" vector-effect="non-scaling-stroke" stroke-width="2" stroke="rgb(255,255,255)" stroke-opacity="10000" stroke-linejoin="miter" stroke-linecap="square" stroke-miterlimit="3"/></g></g></g><path d=" M 135 40 L 127 40 C 122.582 40 119 43.582 119 48 C 119 52.418 122.582 56 127 56 L 135 56 C 139.418 56 143 52.418 143 48 C 143 43.582 139.418 40 135 40 Z " fill="rgb(255,255,255)"/><clipPath id="_clipPath_PclUjgo5G2pvXFTY9AVWsx2iNq0wm1RM"><path d=" M 135 40 L 127 40 C 122.582 40 119 43.582 119 48 C 119 52.418 122.582 56 127 56 L 135 56 C 139.418 56 143 52.418 143 48 C 143 43.582 139.418 40 135 40 Z " fill="rgb(255,255,255)"/></clipPath><g clip-path="url(#_clipPath_PclUjgo5G2pvXFTY9AVWsx2iNq0wm1RM)"><g><path d=" M 135 40 L 127 40 C 122.582 40 119 43.582 119 48 C 119 52.418 122.582 56 127 56 L 135 56 C 139.418 56 143 52.418 143 48 C 143 43.582 139.418 40 135 40 Z " fill="rgb(255,255,255)"/><clipPath id="_clipPath_KclMCKjW9ETQ6r31H2QEdlzIUGr6dSs8"><path d=" M 135 40 L 127 40 C 122.582 40 119 43.582 119 48 C 119 52.418 122.582 56 127 56 L 135 56 C 139.418 56 143 52.418 143 48 C 143 43.582 139.418 40 135 40 Z " fill="rgb(255,255,255)"/></clipPath><g clip-path="url(#_clipPath_KclMCKjW9ETQ6r31H2QEdlzIUGr6dSs8)"><mask id="_mask_JRSNTWG2goQ6QLGbmHVXtgrLvi4G962x"><path d=" M 135 40 L 127 40 C 122.582 40 119 43.582 119 48 C 119 52.418 122.582 56 127 56 L 135 56 C 139.418 56 143 52.418 143 48 C 143 43.582 139.418 40 135 40 Z " fill="white" stroke="none"/></mask><path d=" M 135 40 L 127 40 C 122.582 40 119 43.582 119 48 C 119 52.418 122.582 56 127 56 L 135 56 C 139.418 56 143 52.418 143 48 C 143 43.582 139.418 40 135 40 Z " fill="rgb(255,255,255)"/><path d=" M 135 40 L 127 40 C 122.582 40 119 43.582 119 48 C 119 52.418 122.582 56 127 56 L 135 56 C 139.418 56 143 52.418 143 48 C 143 43.582 139.418 40 135 40 Z " fill="rgb(255,255,255)" mask="url(#_mask_JRSNTWG2goQ6QLGbmHVXtgrLvi4G962x)" vector-effect="non-scaling-stroke" stroke-width="2" stroke="rgb(255,255,255)" stroke-opacity="10000" stroke-linejoin="miter" stroke-linecap="square" stroke-miterlimit="3"/></g></g></g></g></g></svg>