<?xml version="1.0" encoding="UTF-8" standalone="no"?><!-- Generator: Gravit.io --><svg xmlns="http://www.w3.org/2000/svg" xmlns:xlink="http://www.w3.org/1999/xlink" style="isolation:isolate" viewBox="0 0 512.005 512" width="512.005pt" height="512pt"><defs><clipPath id="_clipPath_hRyCagKCQxkQjxCDPaoxnJfvgn4D13UE"><rect x="0" y="0" width="512.005" height="512"/></clipPath></defs><g clip-path="url(#_clipPath_hRyCagKCQxkQjxCDPaoxnJfvgn4D13UE)"><g><g><path d=" M 288 512 L 53.333 512 C 23.936 512 0 488.064 0 458.667 L 0 53.333 C 0 23.936 23.936 0 53.333 0 L 288 0 C 317.397 0 341.333 23.936 341.333 53.333 L 341.333 181.333 C 341.333 187.221 336.555 192 330.667 192 C 324.779 192 320 187.221 320 181.333 L 320 53.333 C 320 35.691 305.643 21.333 288 21.333 L 53.333 21.333 C 35.691 21.333 21.333 35.691 21.333 53.333 L 21.333 458.667 C 21.333 476.309 35.691 490.667 53.333 490.667 L 288 490.667 C 305.643 490.667 320 476.309 320 458.667 L 320 330.667 C 320 324.779 324.779 320 330.667 320 C 336.555 320 341.333 324.779 341.333 330.667 L 341.333 458.667 C 341.333 488.064 317.397 512 288 512 Z " fill="rgb(255,0,0)"/></g><g><path d=" M 501.333 266.667 L 181.333 266.667 C 175.445 266.667 170.667 261.888 170.667 256 C 170.667 250.112 175.445 245.333 181.333 245.333 L 501.333 245.333 C 507.221 245.333 512 250.112 512 256 C 512 261.888 507.221 266.667 501.333 266.667 Z " fill="rgb(255,0,0)"/></g><g><path d=" M 416 352 C 413.269 352 410.539 350.955 408.448 348.885 C 404.288 344.725 404.288 337.963 408.448 333.803 L 486.251 256 L 408.469 178.219 C 404.309 174.059 404.309 167.296 408.469 163.136 C 412.629 158.976 419.392 158.976 423.552 163.136 L 508.885 248.469 C 513.045 252.629 513.045 259.392 508.885 263.552 L 423.552 348.885 C 421.461 350.955 418.731 352 416 352 Z " fill="rgb(255,0,0)"/></g></g></g></svg>