<?xml version="1.0" encoding="UTF-8" standalone="no"?><!-- Generator: Gravit.io --><svg xmlns="http://www.w3.org/2000/svg" xmlns:xlink="http://www.w3.org/1999/xlink" style="isolation:isolate" viewBox="252 12.344 40 35.313" width="40pt" height="35.313pt"><defs><clipPath id="_clipPath_TyfQSEyoMurLJqCpminSMRUPp2gvwWJY"><rect x="252" y="12.344" width="40" height="35.313"/></clipPath></defs><g clip-path="url(#_clipPath_TyfQSEyoMurLJqCpminSMRUPp2gvwWJY)"><g><mask id="_mask_0najtTwulsFwTidvAxKrVTo6bV8JbB0q"><path d=" M 281.375 12.344 C 279.204 12.344 277.214 13.032 275.46 14.388 C 273.779 15.689 272.659 17.345 272 18.55 C 271.341 17.345 270.221 15.689 268.54 14.388 C 266.786 13.032 264.796 12.344 262.625 12.344 C 256.568 12.344 252 17.298 252 23.868 C 252 30.966 257.699 35.823 266.326 43.174 C 267.791 44.423 269.451 45.838 271.177 47.347 C 271.405 47.547 271.697 47.656 272 47.656 C 272.303 47.656 272.595 47.547 272.823 47.347 C 274.549 45.838 276.209 44.423 277.675 43.174 C 286.301 35.823 292 30.966 292 23.868 C 292 17.298 287.432 12.344 281.375 12.344 Z " fill="white" stroke="none"/></mask><path d=" M 281.375 12.344 C 279.204 12.344 277.214 13.032 275.46 14.388 C 273.779 15.689 272.659 17.345 272 18.55 C 271.341 17.345 270.221 15.689 268.54 14.388 C 266.786 13.032 264.796 12.344 262.625 12.344 C 256.568 12.344 252 17.298 252 23.868 C 252 30.966 257.699 35.823 266.326 43.174 C 267.791 44.423 269.451 45.838 271.177 47.347 C 271.405 47.547 271.697 47.656 272 47.656 C 272.303 47.656 272.595 47.547 272.823 47.347 C 274.549 45.838 276.209 44.423 277.675 43.174 C 286.301 35.823 292 30.966 292 23.868 C 292 17.298 287.432 12.344 281.375 12.344 Z " fill="none"/><path d=" M 281.375 12.344 C 279.204 12.344 277.214 13.032 275.46 14.388 C 273.779 15.689 272.659 17.345 272 18.55 C 271.341 17.345 270.221 15.689 268.54 14.388 C 266.786 13.032 264.796 12.344 262.625 12.344 C 256.568 12.344 252 17.298 252 23.868 C 252 30.966 257.699 35.823 266.326 43.174 C 267.791 44.423 269.451 45.838 271.177 47.347 C 271.405 47.547 271.697 47.656 272 47.656 C 272.303 47.656 272.595 47.547 272.823 47.347 C 274.549 45.838 276.209 44.423 277.675 43.174 C 286.301 35.823 292 30.966 292 23.868 C 292 17.298 287.432 12.344 281.375 12.344 Z " fill="none" mask="url(#_mask_0najtTwulsFwTidvAxKrVTo6bV8JbB0q)" vector-effect="non-scaling-stroke" stroke-width="2" stroke="rgb(219,24,24)" stroke-linejoin="miter" stroke-linecap="square" stroke-miterlimit="3"/></g></g></svg>