<?xml version="1.0" encoding="UTF-8" standalone="no"?><!-- Generator: Gravit.io --><svg xmlns="http://www.w3.org/2000/svg" xmlns:xlink="http://www.w3.org/1999/xlink" style="isolation:isolate" viewBox="32 112 496 336" width="496pt" height="336pt"><defs><clipPath id="_clipPath_CE3eEH8HRsCI4z7XoIjOw8UKDkr0j3fC"><rect x="32" y="112" width="496" height="336"/></clipPath></defs><g clip-path="url(#_clipPath_CE3eEH8HRsCI4z7XoIjOw8UKDkr0j3fC)"><g><path d=" M 488 112 L 72 112 C 49.919 112.025 32.025 129.919 32 152 L 32 408 C 32.025 430.081 49.919 447.975 72 448 L 488 448 C 510.081 447.975 527.975 430.081 528 408 L 528 152 C 527.975 129.919 510.081 112.025 488 112 L 488 112 Z  M 48 152 C 48.015 138.751 58.751 128.015 72 128 L 488 128 C 501.249 128.015 511.985 138.751 512 152 L 512 176 L 48 176 L 48 152 Z  M 196.944 432 L 220.944 384 L 338.124 384 L 362.874 432 L 196.944 432 Z  M 512 408 C 511.985 421.249 501.249 431.985 488 432 L 380.876 432 L 350.11 372.333 C 348.738 369.672 345.994 368 343 368 L 216 368 C 212.97 368 210.2 369.712 208.845 372.422 L 179.056 432 L 72 432 C 58.751 431.985 48.015 421.249 48 408 L 48 192 L 512 192 L 512 408 Z " fill="rgb(255,255,255)"/><clipPath id="_clipPath_g1RFHR3oQMijJQqxvq0W5d56JFd7xbz1"><path d=" M 488 112 L 72 112 C 49.919 112.025 32.025 129.919 32 152 L 32 408 C 32.025 430.081 49.919 447.975 72 448 L 488 448 C 510.081 447.975 527.975 430.081 528 408 L 528 152 C 527.975 129.919 510.081 112.025 488 112 L 488 112 Z  M 48 152 C 48.015 138.751 58.751 128.015 72 128 L 488 128 C 501.249 128.015 511.985 138.751 512 152 L 512 176 L 48 176 L 48 152 Z  M 196.944 432 L 220.944 384 L 338.124 384 L 362.874 432 L 196.944 432 Z  M 512 408 C 511.985 421.249 501.249 431.985 488 432 L 380.876 432 L 350.11 372.333 C 348.738 369.672 345.994 368 343 368 L 216 368 C 212.97 368 210.2 369.712 208.845 372.422 L 179.056 432 L 72 432 C 58.751 431.985 48.015 421.249 48 408 L 48 192 L 512 192 L 512 408 Z " fill="rgb(255,255,255)"/></clipPath><g clip-path="url(#_clipPath_g1RFHR3oQMijJQqxvq0W5d56JFd7xbz1)"><mask id="_mask_6KOAf9hwWslLiDq84lDfPlNRW2xMBnil"><path d=" M 488 112 L 72 112 C 49.919 112.025 32.025 129.919 32 152 L 32 408 C 32.025 430.081 49.919 447.975 72 448 L 488 448 C 510.081 447.975 527.975 430.081 528 408 L 528 152 C 527.975 129.919 510.081 112.025 488 112 L 488 112 Z  M 48 152 C 48.015 138.751 58.751 128.015 72 128 L 488 128 C 501.249 128.015 511.985 138.751 512 152 L 512 176 L 48 176 L 48 152 Z  M 196.944 432 L 220.944 384 L 338.124 384 L 362.874 432 L 196.944 432 Z  M 512 408 C 511.985 421.249 501.249 431.985 488 432 L 380.876 432 L 350.11 372.333 C 348.738 369.672 345.994 368 343 368 L 216 368 C 212.97 368 210.2 369.712 208.845 372.422 L 179.056 432 L 72 432 C 58.751 431.985 48.015 421.249 48 408 L 48 192 L 512 192 L 512 408 Z " fill="white" stroke="none"/></mask><path d=" M 488 112 L 72 112 C 49.919 112.025 32.025 129.919 32 152 L 32 408 C 32.025 430.081 49.919 447.975 72 448 L 488 448 C 510.081 447.975 527.975 430.081 528 408 L 528 152 C 527.975 129.919 510.081 112.025 488 112 L 488 112 Z  M 48 152 C 48.015 138.751 58.751 128.015 72 128 L 488 128 C 501.249 128.015 511.985 138.751 512 152 L 512 176 L 48 176 L 48 152 Z  M 196.944 432 L 220.944 384 L 338.124 384 L 362.874 432 L 196.944 432 Z  M 512 408 C 511.985 421.249 501.249 431.985 488 432 L 380.876 432 L 350.11 372.333 C 348.738 369.672 345.994 368 343 368 L 216 368 C 212.97 368 210.2 369.712 208.845 372.422 L 179.056 432 L 72 432 C 58.751 431.985 48.015 421.249 48 408 L 48 192 L 512 192 L 512 408 Z " fill="rgb(255,255,255)"/><path d=" M 488 112 L 72 112 C 49.919 112.025 32.025 129.919 32 152 L 32 408 C 32.025 430.081 49.919 447.975 72 448 L 488 448 C 510.081 447.975 527.975 430.081 528 408 L 528 152 C 527.975 129.919 510.081 112.025 488 112 L 488 112 Z  M 48 152 C 48.015 138.751 58.751 128.015 72 128 L 488 128 C 501.249 128.015 511.985 138.751 512 152 L 512 176 L 48 176 L 48 152 Z  M 196.944 432 L 220.944 384 L 338.124 384 L 362.874 432 L 196.944 432 Z  M 512 408 C 511.985 421.249 501.249 431.985 488 432 L 380.876 432 L 350.11 372.333 C 348.738 369.672 345.994 368 343 368 L 216 368 C 212.97 368 210.2 369.712 208.845 372.422 L 179.056 432 L 72 432 C 58.751 431.985 48.015 421.249 48 408 L 48 192 L 512 192 L 512 408 Z " fill="rgb(255,255,255)" mask="url(#_mask_6KOAf9hwWslLiDq84lDfPlNRW2xMBnil)" vector-effect="non-scaling-stroke" stroke-width="2" stroke="rgb(255,255,255)" stroke-opacity="100" stroke-linejoin="miter" stroke-linecap="square" stroke-miterlimit="3"/></g><path d=" M 168 336 L 392 336 C 422.928 336 448 310.928 448 280 C 448 249.072 422.928 224 392 224 L 168 224 C 137.072 224 112 249.072 112 280 C 112 310.928 137.072 336 168 336 Z  M 432 280 C 432 302.091 414.091 320 392 320 C 369.909 320 352 302.091 352 280 C 352 257.909 369.909 240 392 240 C 414.081 240.025 431.975 257.919 432 280 L 432 280 Z  M 352.862 240 C 342.08 250.516 336 264.939 336 280 C 336 295.061 342.08 309.484 352.862 320 L 207.138 320 C 217.92 309.484 224 295.061 224 280 C 224 264.939 217.92 250.516 207.138 240 L 352.862 240 Z  M 168 240 C 190.091 240 208 257.909 208 280 C 208 302.091 190.091 320 168 320 C 145.909 320 128 302.091 128 280 C 128.025 257.919 145.919 240.025 168 240 L 168 240 Z " fill="rgb(255,255,255)"/><clipPath id="_clipPath_qkGCLdOq3oBrXHHkQAzxKbAwQTRmPUJI"><path d=" M 168 336 L 392 336 C 422.928 336 448 310.928 448 280 C 448 249.072 422.928 224 392 224 L 168 224 C 137.072 224 112 249.072 112 280 C 112 310.928 137.072 336 168 336 Z  M 432 280 C 432 302.091 414.091 320 392 320 C 369.909 320 352 302.091 352 280 C 352 257.909 369.909 240 392 240 C 414.081 240.025 431.975 257.919 432 280 L 432 280 Z  M 352.862 240 C 342.08 250.516 336 264.939 336 280 C 336 295.061 342.08 309.484 352.862 320 L 207.138 320 C 217.92 309.484 224 295.061 224 280 C 224 264.939 217.92 250.516 207.138 240 L 352.862 240 Z  M 168 240 C 190.091 240 208 257.909 208 280 C 208 302.091 190.091 320 168 320 C 145.909 320 128 302.091 128 280 C 128.025 257.919 145.919 240.025 168 240 L 168 240 Z " fill="rgb(255,255,255)"/></clipPath><g clip-path="url(#_clipPath_qkGCLdOq3oBrXHHkQAzxKbAwQTRmPUJI)"><mask id="_mask_uAoKWjF9nezyN2GaAolWi8F8clHkGeEL"><path d=" M 168 336 L 392 336 C 422.928 336 448 310.928 448 280 C 448 249.072 422.928 224 392 224 L 168 224 C 137.072 224 112 249.072 112 280 C 112 310.928 137.072 336 168 336 Z  M 432 280 C 432 302.091 414.091 320 392 320 C 369.909 320 352 302.091 352 280 C 352 257.909 369.909 240 392 240 C 414.081 240.025 431.975 257.919 432 280 L 432 280 Z  M 352.862 240 C 342.08 250.516 336 264.939 336 280 C 336 295.061 342.08 309.484 352.862 320 L 207.138 320 C 217.92 309.484 224 295.061 224 280 C 224 264.939 217.92 250.516 207.138 240 L 352.862 240 Z  M 168 240 C 190.091 240 208 257.909 208 280 C 208 302.091 190.091 320 168 320 C 145.909 320 128 302.091 128 280 C 128.025 257.919 145.919 240.025 168 240 L 168 240 Z " fill="white" stroke="none"/></mask><path d=" M 168 336 L 392 336 C 422.928 336 448 310.928 448 280 C 448 249.072 422.928 224 392 224 L 168 224 C 137.072 224 112 249.072 112 280 C 112 310.928 137.072 336 168 336 Z  M 432 280 C 432 302.091 414.091 320 392 320 C 369.909 320 352 302.091 352 280 C 352 257.909 369.909 240 392 240 C 414.081 240.025 431.975 257.919 432 280 L 432 280 Z  M 352.862 240 C 342.08 250.516 336 264.939 336 280 C 336 295.061 342.08 309.484 352.862 320 L 207.138 320 C 217.92 309.484 224 295.061 224 280 C 224 264.939 217.92 250.516 207.138 240 L 352.862 240 Z  M 168 240 C 190.091 240 208 257.909 208 280 C 208 302.091 190.091 320 168 320 C 145.909 320 128 302.091 128 280 C 128.025 257.919 145.919 240.025 168 240 L 168 240 Z " fill="rgb(255,255,255)"/><path d=" M 168 336 L 392 336 C 422.928 336 448 310.928 448 280 C 448 249.072 422.928 224 392 224 L 168 224 C 137.072 224 112 249.072 112 280 C 112 310.928 137.072 336 168 336 Z  M 432 280 C 432 302.091 414.091 320 392 320 C 369.909 320 352 302.091 352 280 C 352 257.909 369.909 240 392 240 C 414.081 240.025 431.975 257.919 432 280 L 432 280 Z  M 352.862 240 C 342.08 250.516 336 264.939 336 280 C 336 295.061 342.08 309.484 352.862 320 L 207.138 320 C 217.92 309.484 224 295.061 224 280 C 224 264.939 217.92 250.516 207.138 240 L 352.862 240 Z  M 168 240 C 190.091 240 208 257.909 208 280 C 208 302.091 190.091 320 168 320 C 145.909 320 128 302.091 128 280 C 128.025 257.919 145.919 240.025 168 240 L 168 240 Z " fill="rgb(255,255,255)" mask="url(#_mask_uAoKWjF9nezyN2GaAolWi8F8clHkGeEL)" vector-effect="non-scaling-stroke" stroke-width="2" stroke="rgb(255,255,255)" stroke-opacity="100" stroke-linejoin="miter" stroke-linecap="square" stroke-miterlimit="3"/></g><path d=" M 136 152 L 72 152 C 67.582 152 64 155.582 64 160 C 64 164.418 67.582 168 72 168 L 136 168 C 140.418 168 144 164.418 144 160 C 144 155.582 140.418 152 136 152 Z " fill="rgb(255,255,255)"/><clipPath id="_clipPath_2jE3jVmpFDoFd48XINN73nGqGCW5P8N1"><path d=" M 136 152 L 72 152 C 67.582 152 64 155.582 64 160 C 64 164.418 67.582 168 72 168 L 136 168 C 140.418 168 144 164.418 144 160 C 144 155.582 140.418 152 136 152 Z " fill="rgb(255,255,255)"/></clipPath><g clip-path="url(#_clipPath_2jE3jVmpFDoFd48XINN73nGqGCW5P8N1)"><mask id="_mask_shoGvDzkfjfEabAxhe3BSRN5zPdCIA9L"><path d=" M 136 152 L 72 152 C 67.582 152 64 155.582 64 160 C 64 164.418 67.582 168 72 168 L 136 168 C 140.418 168 144 164.418 144 160 C 144 155.582 140.418 152 136 152 Z " fill="white" stroke="none"/></mask><path d=" M 136 152 L 72 152 C 67.582 152 64 155.582 64 160 C 64 164.418 67.582 168 72 168 L 136 168 C 140.418 168 144 164.418 144 160 C 144 155.582 140.418 152 136 152 Z " fill="rgb(255,255,255)"/><path d=" M 136 152 L 72 152 C 67.582 152 64 155.582 64 160 C 64 164.418 67.582 168 72 168 L 136 168 C 140.418 168 144 164.418 144 160 C 144 155.582 140.418 152 136 152 Z " fill="rgb(255,255,255)" mask="url(#_mask_shoGvDzkfjfEabAxhe3BSRN5zPdCIA9L)" vector-effect="non-scaling-stroke" stroke-width="2" stroke="rgb(255,255,255)" stroke-opacity="100" stroke-linejoin="miter" stroke-linecap="square" stroke-miterlimit="3"/></g><path d=" M 167 152 L 159 152 C 154.582 152 151 155.582 151 160 C 151 164.418 154.582 168 159 168 L 167 168 C 171.418 168 175 164.418 175 160 C 175 155.582 171.418 152 167 152 Z " fill="rgb(255,255,255)"/><clipPath id="_clipPath_0jAh1rDIMbroxlcO1y6UWxJ4NO4H3V3a"><path d=" M 167 152 L 159 152 C 154.582 152 151 155.582 151 160 C 151 164.418 154.582 168 159 168 L 167 168 C 171.418 168 175 164.418 175 160 C 175 155.582 171.418 152 167 152 Z " fill="rgb(255,255,255)"/></clipPath><g clip-path="url(#_clipPath_0jAh1rDIMbroxlcO1y6UWxJ4NO4H3V3a)"><mask id="_mask_CZ3dY6zbj9o72YEGXpFTkJ74piX60B9g"><path d=" M 167 152 L 159 152 C 154.582 152 151 155.582 151 160 C 151 164.418 154.582 168 159 168 L 167 168 C 171.418 168 175 164.418 175 160 C 175 155.582 171.418 152 167 152 Z " fill="white" stroke="none"/></mask><path d=" M 167 152 L 159 152 C 154.582 152 151 155.582 151 160 C 151 164.418 154.582 168 159 168 L 167 168 C 171.418 168 175 164.418 175 160 C 175 155.582 171.418 152 167 152 Z " fill="rgb(255,255,255)"/><path d=" M 167 152 L 159 152 C 154.582 152 151 155.582 151 160 C 151 164.418 154.582 168 159 168 L 167 168 C 171.418 168 175 164.418 175 160 C 175 155.582 171.418 152 167 152 Z " fill="rgb(255,255,255)" mask="url(#_mask_CZ3dY6zbj9o72YEGXpFTkJ74piX60B9g)" vector-effect="non-scaling-stroke" stroke-width="2" stroke="rgb(255,255,255)" stroke-opacity="100" stroke-linejoin="miter" stroke-linecap="square" stroke-miterlimit="3"/></g></g></g></svg>