<?xml version="1.0" encoding="UTF-8" standalone="no"?><!-- Generator: Gravit.io --><svg xmlns="http://www.w3.org/2000/svg" xmlns:xlink="http://www.w3.org/1999/xlink" style="isolation:isolate" viewBox="78.576 535 470.424 493.796" width="470.424pt" height="493.796pt"><defs><clipPath id="_clipPath_aXp27BsIJQ09RY1If6nmQgEeU3CWrcym"><rect x="78.576" y="535" width="470.424" height="493.796"/></clipPath></defs><g clip-path="url(#_clipPath_aXp27BsIJQ09RY1If6nmQgEeU3CWrcym)"><g><g><g><path d=" M 422.828 735.956 L 148.304 547.128 C 137.024 539.352 125.292 535.248 115.248 535.248 C 93.196 535.248 78.576 553.744 78.576 583.508 L 78.576 980.544 C 78.576 995.084 82.804 1007.232 89.072 1015.688 C 95.436 1024.26 105.392 1028.796 116.148 1028.796 C 126.188 1028.796 137.456 1024.684 148.732 1016.92 L 423.008 828.092 C 440.64 815.94 450.308 799.584 450.304 782.016 C 450.304 764.456 440.484 748.1 422.828 735.956 Z " fill="rgb(159,32,244)"/></g></g><g><g><g><path d=" M 523.336 1028.672 L 523.043 1028.668 C 522.995 1028.668 522.948 1028.672 522.9 1028.672 L 523.336 1028.672 Z " fill="rgb(0,0,0)"/><path d=" M 522.528 535 L 511.18 535.032 C 496.32 535.032 483.456 547.144 483.456 562.024 L 483.456 1001.392 C 483.456 1016.288 496.108 1028.516 510.988 1028.516 L 523.043 1028.668 C 537.848 1028.589 549 1016.256 549 1001.416 L 549 561.996 C 549 547.116 537.4 535 522.528 535 Z " fill="rgb(159,32,244)"/></g></g></g></g></g></svg>