<?xml version="1.0" encoding="UTF-8" standalone="no"?><!-- Generator: Gravit.io --><svg xmlns="http://www.w3.org/2000/svg" xmlns:xlink="http://www.w3.org/1999/xlink" style="isolation:isolate" viewBox="0 0 426.668 426.668" width="426.668pt" height="426.668pt"><defs><clipPath id="_clipPath_XQMJGdFEPKl3Bil4mdveTz90Bswjyy0e"><rect x="0" y="0" width="426.668" height="426.668"/></clipPath></defs><g clip-path="url(#_clipPath_XQMJGdFEPKl3Bil4mdveTz90Bswjyy0e)"><path d=" M 405.332 192 L 234.668 192 L 234.668 21.332 C 234.668 9.559 225.109 0 213.332 0 C 201.559 0 192 9.559 192 21.332 L 192 192 L 21.332 192 C 9.559 192 0 201.559 0 213.332 C 0 225.109 9.559 234.668 21.332 234.668 L 192 234.668 L 192 405.332 C 192 417.109 201.559 426.668 213.332 426.668 C 225.109 426.668 234.668 417.109 234.668 405.332 L 234.668 234.668 L 405.332 234.668 C 417.109 234.668 426.668 225.109 426.668 213.332 C 426.668 201.559 417.109 192 405.332 192 L 405.332 192 Z " fill="rgb(255,255,255)"/></g></svg>