<?xml version="1.0" encoding="UTF-8" standalone="no"?><!-- Generator: Gravit.io --><svg xmlns="http://www.w3.org/2000/svg" xmlns:xlink="http://www.w3.org/1999/xlink" style="isolation:isolate" viewBox="42.667 0 426.667 512" width="426.667pt" height="512pt"><defs><clipPath id="_clipPath_lPDBthLRbrv2D342jigSSKKDvnu4GsJj"><rect x="42.667" y="0" width="426.667" height="512"/></clipPath></defs><g clip-path="url(#_clipPath_lPDBthLRbrv2D342jigSSKKDvnu4GsJj)"><g><path d=" M 181.333 0 L 74.667 0 C 57.024 0 42.667 14.357 42.667 32 L 42.667 480 C 42.667 497.643 57.024 512 74.667 512 L 181.334 512 C 198.977 512 213.334 497.643 213.334 480 L 213.334 32 C 213.333 14.357 198.976 0 181.333 0 Z " fill="rgb(159,32,244)"/><path d=" M 437.333 0 L 330.667 0 C 313.024 0 298.667 14.357 298.667 32 L 298.667 480 C 298.667 497.643 313.024 512 330.667 512 L 437.334 512 C 454.977 512 469.334 497.643 469.334 480 L 469.334 32 C 469.333 14.357 454.976 0 437.333 0 Z " fill="rgb(159,32,244)"/></g></g></svg>