<?xml version="1.0" encoding="UTF-8" standalone="no"?><!-- Generator: Gravit.io --><svg xmlns="http://www.w3.org/2000/svg" xmlns:xlink="http://www.w3.org/1999/xlink" style="isolation:isolate" viewBox="0 0 512 512" width="512pt" height="512pt"><defs><clipPath id="_clipPath_FqvFae7lSimsc1beQIBBoiswaolbuTVF"><rect x="0" y="0" width="512" height="512"/></clipPath></defs><g clip-path="url(#_clipPath_FqvFae7lSimsc1beQIBBoiswaolbuTVF)"><g><path d=" M 256 0 C 114.833 0 0 114.844 0 256 C 0 397.156 114.833 512 256 512 C 397.167 512 512 397.156 512 256 C 512 114.844 397.167 0 256 0 Z  M 256 490.667 C 126.604 490.667 21.333 385.396 21.333 256 C 21.333 126.604 126.604 21.333 256 21.333 C 385.396 21.333 490.667 126.604 490.667 256 C 490.667 385.396 385.396 490.667 256 490.667 Z " fill="rgb(185,185,185)"/><path d=" M 357.771 247.031 L 208.438 151.031 C 205.167 148.896 200.938 148.781 197.563 150.635 C 194.125 152.51 192 156.094 192 160 L 192 352 C 192 355.906 194.125 359.49 197.563 361.365 C 199.146 362.23 200.917 362.667 202.667 362.667 C 204.667 362.667 206.688 362.104 208.438 360.969 L 357.771 264.969 C 360.813 263.011 362.667 259.625 362.667 256 C 362.667 252.375 360.813 248.99 357.771 247.031 Z  M 213.333 332.458 L 213.333 179.542 L 332.271 256 L 213.333 332.458 L 213.333 332.458 Z " fill="rgb(185,185,185)"/></g></g></svg>