<?xml version="1.0" encoding="UTF-8" standalone="no"?><!-- Generator: Gravit.io --><svg xmlns="http://www.w3.org/2000/svg" xmlns:xlink="http://www.w3.org/1999/xlink" style="isolation:isolate" viewBox="0 0 512 512" width="512pt" height="512pt"><defs><clipPath id="_clipPath_RVWMLvRufK35qfkG3jZJ1g0KDv1ksl3T"><rect x="0" y="0" width="512" height="512"/></clipPath></defs><g clip-path="url(#_clipPath_RVWMLvRufK35qfkG3jZJ1g0KDv1ksl3T)"><g><path d=" M 492 236 L 276 236 L 276 20 C 276 8.954 267.046 0 256 0 C 244.954 0 236 8.954 236 20 L 236 236 L 20 236 C 8.954 236 0 244.954 0 256 C 0 267.046 8.954 276 20 276 L 236 276 L 236 492 C 236 503.046 244.954 512 256 512 C 267.046 512 276 503.046 276 492 L 276 276 L 492 276 C 503.046 276 512 267.046 512 256 C 512 244.954 503.046 236 492 236 Z " fill="rgb(219,24,24)"/></g></g></svg>