<?xml version="1.0" encoding="UTF-8" standalone="no"?><!-- Generator: Gravit.io --><svg xmlns="http://www.w3.org/2000/svg" xmlns:xlink="http://www.w3.org/1999/xlink" style="isolation:isolate" viewBox="78.576 535 470.424 493.796" width="470.424pt" height="493.796pt"><defs><clipPath id="_clipPath_mFmXUDoPAIniKirz1L6scWYyFZvE1xpu"><rect x="78.576" y="535" width="470.424" height="493.796"/></clipPath></defs><g clip-path="url(#_clipPath_mFmXUDoPAIniKirz1L6scWYyFZvE1xpu)"><g><g><g><path d=" M 204.748 735.956 L 479.272 547.128 C 490.552 539.352 502.284 535.248 512.328 535.248 C 534.38 535.248 549 553.744 549 583.508 L 549 980.544 C 549 995.084 544.772 1007.232 538.504 1015.688 C 532.14 1024.26 522.184 1028.796 511.428 1028.796 C 501.388 1028.796 490.12 1024.684 478.844 1016.92 L 204.568 828.092 C 186.936 815.94 177.268 799.584 177.272 782.016 C 177.272 764.456 187.092 748.1 204.748 735.956 Z " fill="rgb(159,32,244)"/></g></g><g><g><g><path d=" M 104.24 1028.672 L 104.533 1028.668 C 104.581 1028.668 104.628 1028.672 104.676 1028.672 L 104.24 1028.672 Z " fill="rgb(0,0,0)"/><path d=" M 105.048 535 L 116.396 535.032 C 131.256 535.032 144.12 547.144 144.12 562.024 L 144.12 1001.392 C 144.12 1016.288 131.468 1028.516 116.588 1028.516 L 104.533 1028.668 C 89.728 1028.589 78.576 1016.256 78.576 1001.416 L 78.576 561.996 C 78.576 547.116 90.176 535 105.048 535 Z " fill="rgb(159,32,244)"/></g></g></g></g></g></svg>