<?xml version="1.0" encoding="UTF-8" standalone="no"?><!-- Generator: Gravit.io --><svg xmlns="http://www.w3.org/2000/svg" xmlns:xlink="http://www.w3.org/1999/xlink" style="isolation:isolate" viewBox="0 0 512 512" width="512pt" height="512pt"><defs><clipPath id="_clipPath_4iBSTppImfuGX13OM6jG2OJMKysv0Q8L"><rect x="0" y="0" width="512" height="512"/></clipPath></defs><g clip-path="url(#_clipPath_4iBSTppImfuGX13OM6jG2OJMKysv0Q8L)"><g><g><g><path d=" M 225.474 0 C 101.151 0 0 101.151 0 225.474 C 0 349.804 101.151 450.948 225.474 450.948 C 349.804 450.948 450.948 349.804 450.948 225.474 C 450.948 101.151 349.804 0 225.474 0 Z  M 225.474 409.323 C 124.101 409.323 41.626 326.848 41.626 225.475 C 41.626 124.102 124.101 41.626 225.474 41.626 C 326.847 41.626 409.322 124.101 409.322 225.474 C 409.322 326.847 326.847 409.323 225.474 409.323 Z " fill="rgb(25,168,25)"/></g></g><g><g><path d=" M 505.902 476.472 L 386.574 357.144 C 378.443 349.013 365.275 349.013 357.144 357.144 C 349.013 365.268 349.013 378.45 357.144 386.574 L 476.472 505.902 C 480.537 509.967 485.859 512 491.187 512 C 496.508 512 501.836 509.967 505.902 505.902 C 514.033 497.778 514.033 484.596 505.902 476.472 Z " fill="rgb(25,168,25)"/></g></g></g></g></svg>