<?xml version="1.0" encoding="UTF-8" standalone="no"?><!-- Generator: Gravit.io --><svg xmlns="http://www.w3.org/2000/svg" xmlns:xlink="http://www.w3.org/1999/xlink" style="isolation:isolate" viewBox="16 0 480 512" width="480pt" height="512pt"><defs><clipPath id="_clipPath_sIi2hdjqM4U7SLwIamuYkhlOK1jODC0F"><rect x="16" y="0" width="480" height="512"/></clipPath></defs><g clip-path="url(#_clipPath_sIi2hdjqM4U7SLwIamuYkhlOK1jODC0F)"><path d=" M 406 332 C 376.364 332 350.031 346.402 333.622 368.571 L 192.352 296.376 C 194.722 288.324 196 279.809 196 271 C 196 259.069 193.661 247.676 189.426 237.247 L 337.486 148.289 C 354.006 167.679 378.59 180 406 180 C 455.626 180 496 139.626 496 90 C 496 40.374 455.626 0 406 0 C 356.374 0 316 40.374 316 90 C 316 101.47 318.161 112.443 322.09 122.54 L 173.66 211.72 C 157.152 192.902 132.941 181 106 181 C 56.374 181 16 221.374 16 271 C 16 320.626 56.374 361 106 361 C 136.122 361 162.832 346.124 179.177 323.334 L 320.037 395.319 C 317.414 403.753 316 412.714 316 422 C 316 471.626 356.374 512 406 512 C 455.626 512 496 471.626 496 422 C 496 372.374 455.626 332 406 332 Z  M 406 30 C 439.084 30 466 56.916 466 90 C 466 123.084 439.084 150 406 150 C 372.916 150 346 123.084 346 90 C 346 56.916 372.916 30 406 30 Z  M 106 331 C 72.916 331 46 304.084 46 271 C 46 237.916 72.916 211 106 211 C 139.084 211 166 237.916 166 271 C 166 304.084 139.084 331 106 331 Z  M 406 482 C 372.916 482 346 455.084 346 422 C 346 388.916 372.916 362 406 362 C 439.084 362 466 388.916 466 422 C 466 455.084 439.084 482 406 482 Z " fill="rgb(185,185,185)"/></g></svg>