<?xml version="1.0" encoding="UTF-8" standalone="no"?><!-- Generator: Gravit.io --><svg xmlns="http://www.w3.org/2000/svg" xmlns:xlink="http://www.w3.org/1999/xlink" style="isolation:isolate" viewBox="0 0 512 512" width="512pt" height="512pt"><defs><clipPath id="_clipPath_KDpH4DtFyzb6Ilh6kOmSxTrq4oE2h2PW"><rect x="0" y="0" width="512" height="512"/></clipPath></defs><g clip-path="url(#_clipPath_KDpH4DtFyzb6Ilh6kOmSxTrq4oE2h2PW)"><path d=" M 256 512 C 397.312 512 512 397.312 512 256 C 512 114.688 397.312 0 256 0 C 114.688 0 0 114.688 0 256 C 0 397.312 114.688 512 256 512 Z  M 359.936 376.661 L 359.936 376.683 C 342.72 376.683 288.341 316.352 135.509 347.669 C 131.477 348.715 126.208 350.357 123.221 350.357 C 103.701 350.357 99.968 321.152 120.96 316.693 C 205.504 298.027 291.904 299.669 365.589 343.744 C 383.168 354.965 375.701 376.661 359.936 376.661 Z  M 387.733 308.971 C 385.323 308.331 386.027 310.443 374.997 304.64 C 310.464 266.453 214.293 251.051 128.704 274.283 C 123.755 275.627 121.067 276.971 116.416 276.971 C 93.568 276.971 87.509 242.603 112.405 235.584 C 213.013 207.317 320.939 223.808 396.075 268.501 C 404.437 273.451 407.744 279.872 407.744 288.832 C 407.637 299.968 398.976 308.971 387.733 308.971 Z  M 97.024 149.291 C 193.515 121.045 339.541 129.963 430.336 182.955 C 453.611 196.373 444.459 230.315 419.712 230.315 L 419.691 230.293 C 414.315 230.293 411.008 228.949 406.357 226.261 C 332.907 182.4 201.472 171.883 116.437 195.627 C 112.704 196.651 108.053 198.293 103.104 198.293 C 89.472 198.293 79.061 187.648 79.061 173.931 C 79.061 159.915 87.744 151.979 97.024 149.291 Z " fill="rgb(22,177,22)"/></g></svg>