<?xml version="1.0" encoding="UTF-8" standalone="no"?><!-- Generator: Gravit.io --><svg xmlns="http://www.w3.org/2000/svg" xmlns:xlink="http://www.w3.org/1999/xlink" style="isolation:isolate" viewBox="0 0 480 442.801" width="480pt" height="442.801pt"><defs><clipPath id="_clipPath_iHHUOG16iM1vYiCyB67MTxBeoknbabkJ"><rect x="0" y="0" width="480" height="442.801"/></clipPath></defs><g clip-path="url(#_clipPath_iHHUOG16iM1vYiCyB67MTxBeoknbabkJ)"><g><path d=" M 278.238 378.801 L 299.289 369.594 C 342.988 350.516 392.73 350.871 436.152 370.566 L 452.688 378.078 L 459.313 363.52 L 442.777 356 C 395.219 334.414 340.738 334.027 292.879 354.938 L 280.879 360.191 L 282.977 358.273 C 316.465 327.34 364.656 318.203 407.145 334.727 L 437.145 346.273 L 442.887 331.328 L 412.887 319.793 C 364.738 301.066 310.125 311.422 272.168 346.473 L 240 375.945 L 207.848 346.473 C 169.891 311.422 115.281 301.066 67.129 319.793 L 37.129 331.328 L 42.871 346.273 L 72.871 334.727 C 115.359 318.199 163.551 327.336 197.039 358.273 L 199.137 360.191 L 187.137 354.938 C 139.277 334.027 84.797 334.414 37.238 356 L 20.703 363.52 L 27.328 378.078 L 43.863 370.566 C 87.285 350.863 137.027 350.512 180.727 369.594 L 201.762 378.801 L 0 378.801 L 0 442.801 L 480 442.801 L 480 378.801 L 278.238 378.801 Z  M 232 426.801 L 16 426.801 L 16 394.801 L 232 394.801 L 232 426.801 Z  M 464 426.801 L 248 426.801 L 248 394.801 L 464 394.801 L 464 426.801 Z " fill="rgb(206, 37, 37)"/><path d=" M 240 317.809 L 91.703 177.809 C 61.883 148.082 52.918 103.316 68.992 64.398 C 85.066 25.48 123.016 0.094 165.121 0.078 C 194.047 0.078 221.055 21.016 238.617 38.586 L 239.887 39.855 L 241.031 38.695 C 258.633 21.031 285.68 0 314.801 0 C 356.809 0.004 394.688 25.273 410.82 64.063 C 426.953 102.848 418.168 147.527 388.551 177.32 L 388.383 177.496 L 240 317.809 Z  M 165.121 16.078 C 129.523 16.086 97.434 37.531 83.805 70.418 C 70.18 103.305 77.695 141.16 102.855 166.344 L 240 295.793 L 377.297 166 C 402.336 140.777 409.746 102.965 396.078 70.156 C 382.406 37.348 350.344 15.98 314.801 16 C 296.398 16 274.199 28.062 252.398 49.969 L 239.961 62.543 L 227.313 49.895 C 211.871 34.473 188.566 16.078 165.121 16.078 L 165.121 16.078 Z " fill="rgb(206, 37, 37)"/></g></g></svg>