<?xml version="1.0" encoding="UTF-8" standalone="no"?><!-- Generator: Gravit.io --><svg xmlns="http://www.w3.org/2000/svg" xmlns:xlink="http://www.w3.org/1999/xlink" style="isolation:isolate" viewBox="645 353 325 200" width="325pt" height="200pt"><defs><clipPath id="_clipPath_6Fgc63ui6K5iB1H9VOiAd7iWO55xrQLX"><rect x="645" y="353" width="325" height="200"/></clipPath></defs><g clip-path="url(#_clipPath_6Fgc63ui6K5iB1H9VOiAd7iWO55xrQLX)"><g><path d=" M 652 353 L 963 353 C 966.863 353 970 356.137 970 360 L 970 546 C 970 549.863 966.863 553 963 553 L 652 553 C 648.137 553 645 549.863 645 546 L 645 360 C 645 356.137 648.137 353 652 353 Z  M 665.789 370.08 L 949.211 370.08 C 951.275 370.08 952.95 371.755 952.95 373.819 L 952.95 497.261 C 952.95 499.325 951.275 501 949.211 501 L 665.789 501 C 663.725 501 662.05 499.325 662.05 497.261 L 662.05 373.819 C 662.05 371.755 663.725 370.08 665.789 370.08 Z " fill-rule="evenodd" fill="rgb(42,42,42)" fill-opacity="0.6"/><mask id="_mask_iaEum3dPOIarG95rSBsM3lSDmJsyS4yb"><path d=" M 807.5 516 L 861.735 516 C 866.702 516 872.745 519.496 875.22 523.803 L 892 553 L 807.5 553 L 807.5 553 L 723 553 L 739.78 523.803 C 742.255 519.496 748.298 516 753.265 516 L 807.5 516 L 807.5 516 Z " fill-rule="evenodd" fill="white" fill-opacity="0.55" stroke="none"/></mask><path d=" M 807.5 516 L 861.735 516 C 866.702 516 872.745 519.496 875.22 523.803 L 892 553 L 807.5 553 L 807.5 553 L 723 553 L 739.78 523.803 C 742.255 519.496 748.298 516 753.265 516 L 807.5 516 L 807.5 516 Z " fill-rule="evenodd" fill="rgb(45,45,45)" fill-opacity="0.55"/><path d=" M 807.5 516 L 861.735 516 C 866.702 516 872.745 519.496 875.22 523.803 L 892 553 L 807.5 553 L 807.5 553 L 723 553 L 739.78 523.803 C 742.255 519.496 748.298 516 753.265 516 L 807.5 516 L 807.5 516 Z " fill-rule="evenodd" fill="rgb(45,45,45)" fill-opacity="0.55" mask="url(#_mask_iaEum3dPOIarG95rSBsM3lSDmJsyS4yb)" vector-effect="non-scaling-stroke" stroke-width="2" stroke="rgb(0,0,0)" stroke-linejoin="miter" stroke-linecap="square" stroke-miterlimit="3"/><path d="M 719.616 420.5 L 895.384 420.5 C 899.83 420.5 903.44 424.11 903.44 428.556 L 903.44 460.444 C 903.44 464.89 899.83 468.5 895.384 468.5 L 719.616 468.5 C 715.17 468.5 711.56 464.89 711.56 460.444 L 711.56 428.556 C 711.56 424.11 715.17 420.5 719.616 420.5 Z" style="stroke:none;fill:#2A2A2A;stroke-miterlimit:10;opacity:0.6;"/><mask id="_mask_VM4ziFX6AboYnvolchXCzJhJF5g4Lb19"><path d=" M 744.265 444.5 C 744.265 434.841 752.106 427 761.765 427 C 771.423 427 779.265 434.841 779.265 444.5 C 779.265 454.159 771.423 462 761.765 462 C 752.106 462 744.265 454.159 744.265 444.5 Z " fill-rule="evenodd" fill="white" fill-opacity="0.55" stroke="none"/></mask><path d=" M 744.265 444.5 C 744.265 434.841 752.106 427 761.765 427 C 771.423 427 779.265 434.841 779.265 444.5 C 779.265 454.159 771.423 462 761.765 462 C 752.106 462 744.265 454.159 744.265 444.5 Z " fill-rule="evenodd" fill="rgb(45,45,45)" fill-opacity="0.55"/><path d=" M 744.265 444.5 C 744.265 434.841 752.106 427 761.765 427 C 771.423 427 779.265 434.841 779.265 444.5 C 779.265 454.159 771.423 462 761.765 462 C 752.106 462 744.265 454.159 744.265 444.5 Z " fill-rule="evenodd" fill="rgb(45,45,45)" fill-opacity="0.55" mask="url(#_mask_VM4ziFX6AboYnvolchXCzJhJF5g4Lb19)" vector-effect="non-scaling-stroke" stroke-width="2" stroke="rgb(0,0,0)" stroke-linejoin="miter" stroke-linecap="square" stroke-miterlimit="3"/><mask id="_mask_bKQw53FL9pjEwbDo8rqjO7YwocI1Actn"><path d=" M 835.735 444.5 C 835.735 434.841 843.577 427 853.235 427 C 862.894 427 870.735 434.841 870.735 444.5 C 870.735 454.159 862.894 462 853.235 462 C 843.577 462 835.735 454.159 835.735 444.5 Z " fill-rule="evenodd" fill="white" fill-opacity="0.55" stroke="none"/></mask><path d=" M 835.735 444.5 C 835.735 434.841 843.577 427 853.235 427 C 862.894 427 870.735 434.841 870.735 444.5 C 870.735 454.159 862.894 462 853.235 462 C 843.577 462 835.735 454.159 835.735 444.5 Z " fill-rule="evenodd" fill="rgb(45,45,45)" fill-opacity="0.55"/><path d=" M 835.735 444.5 C 835.735 434.841 843.577 427 853.235 427 C 862.894 427 870.735 434.841 870.735 444.5 C 870.735 454.159 862.894 462 853.235 462 C 843.577 462 835.735 454.159 835.735 444.5 Z " fill-rule="evenodd" fill="rgb(45,45,45)" fill-opacity="0.55" mask="url(#_mask_bKQw53FL9pjEwbDo8rqjO7YwocI1Actn)" vector-effect="non-scaling-stroke" stroke-width="2" stroke="rgb(0,0,0)" stroke-linejoin="miter" stroke-linecap="square" stroke-miterlimit="3"/><circle vector-effect="non-scaling-stroke" cx="761.5" cy="444.5" r="12.5" fill="rgb(0,0,0)"/><circle vector-effect="non-scaling-stroke" cx="853.5" cy="444.5" r="12.5" fill="rgb(0,0,0)"/></g></g></svg>